{"glyphs":{"0":{"ha":917,"x_min":0,"x_max":0,"o":"m 458 -14 b 56 521 218 -14 56 218 b 458 1056 56 824 232 1056 b 861 521 685 1056 861 824 b 458 -14 861 218 699 -14 m 458 1050 b 299 521 328 1050 299 808 b 458 -8 299 233 314 -8 b 618 521 603 -8 618 233 b 458 1050 618 808 596 1050 "},"1":{"ha":688,"x_min":0,"x_max":0,"o":"m 250 6 l 250 1036 l 93 1036 l 93 1042 l 465 1042 l 465 6 l 618 6 l 618 0 l 69 0 l 69 6 "},"2":{"ha":833,"x_min":0,"x_max":0,"o":"m 56 0 l 56 139 l 350 378 b 533 736 472 478 533 585 b 336 1028 533 908 465 1028 b 78 758 192 1028 75 910 b 200 850 94 810 136 850 b 331 731 275 850 331 800 b 194 603 331 654 264 603 b 69 763 125 603 69 656 b 417 1056 69 925 199 1056 b 756 792 633 1056 756 938 b 493 478 756 632 596 556 l 168 208 l 779 208 l 779 313 l 785 313 l 785 0 "},"3":{"ha":793,"x_min":0,"x_max":0,"o":"m 275 565 b 472 821 461 565 472 725 b 340 1042 472 931 436 1042 b 104 903 239 1042 132 978 b 197 950 126 936 164 950 b 304 842 251 950 304 908 b 190 726 304 769 246 726 b 76 840 128 726 76 765 b 363 1054 76 961 221 1054 b 696 814 544 1054 696 967 b 361 563 696 688 625 581 b 738 285 643 544 738 431 b 356 -14 738 97 565 -14 b 35 224 138 -14 35 110 b 156 353 35 301 86 353 b 267 236 218 353 267 307 b 149 125 267 171 210 125 b 51 178 101 125 69 146 b 326 0 68 93 160 0 b 514 285 478 0 514 133 b 275 560 514 408 475 560 "},"4":{"ha":889,"x_min":0,"x_max":0,"o":"m 826 0 l 375 0 l 375 6 l 507 6 l 507 296 l 49 296 l 563 1042 l 722 1042 l 722 301 l 875 301 l 875 296 l 722 296 l 722 6 l 826 6 m 507 301 l 507 950 l 60 301 "},"5":{"ha":743,"x_min":0,"x_max":0,"o":"m 36 138 b 272 -4 56 63 160 -4 b 472 308 424 -4 472 150 b 306 618 472 494 422 618 b 89 496 201 618 117 556 l 79 496 l 79 1042 l 647 1042 l 647 1118 l 653 1118 l 653 833 l 85 833 l 85 501 b 350 632 117 565 207 632 b 701 308 560 632 701 517 b 300 -14 701 121 531 -14 b 14 193 151 -14 14 65 b 135 321 14 271 68 321 b 256 206 197 321 256 282 b 128 83 256 136 194 83 b 36 138 86 83 53 110 "},"6":{"ha":847,"x_min":0,"x_max":0,"o":"m 806 347 b 443 -14 806 139 667 -14 b 69 431 219 -14 69 139 b 701 1056 69 768 336 1056 l 701 1050 b 300 511 465 1050 314 794 b 481 683 315 619 360 683 b 806 347 635 683 806 583 m 576 347 b 439 664 576 568 528 664 b 299 389 333 664 299 569 b 447 -8 299 168 338 -8 b 576 347 557 -8 576 154 "},"7":{"ha":750,"x_min":0,"x_max":0,"o":"m 206 126 b 435 518 206 236 342 368 b 606 826 482 599 540 706 l 61 826 l 61 722 l 56 722 l 56 1042 l 736 1042 b 450 525 736 1042 558 708 b 353 328 381 407 353 375 b 469 115 353 240 469 221 b 339 -14 469 43 421 -14 b 206 126 264 -14 206 29 "},"8":{"ha":833,"x_min":0,"x_max":0,"o":"m 56 264 b 340 535 56 413 147 514 b 83 778 172 556 83 644 b 417 1056 83 931 200 1056 b 750 778 633 1056 750 931 b 493 535 750 644 661 556 b 778 264 686 514 778 413 b 417 -14 778 97 661 -14 b 56 264 172 -14 56 97 m 306 778 b 417 544 306 626 335 544 b 528 778 499 544 528 626 b 417 1039 528 922 499 1039 b 306 778 335 1039 306 922 m 278 264 b 417 3 278 119 314 3 b 556 264 519 3 556 119 b 417 526 556 408 519 526 b 278 264 314 526 278 408 "},"9":{"ha":847,"x_min":0,"x_max":0,"o":"m 778 611 b 146 -14 778 274 511 -14 l 146 -8 b 547 531 382 -8 533 247 b 367 358 532 422 488 358 b 42 694 213 358 42 458 b 404 1056 42 903 181 1056 b 778 611 628 1056 778 903 m 271 694 b 408 378 271 474 319 378 b 549 653 514 378 549 472 b 400 1050 549 874 510 1050 b 271 694 290 1050 271 888 "}," ":{"ha":347,"x_min":0,"x_max":0,"o":""},"!":{"ha":528,"x_min":0,"x_max":0,"o":"m 386 888 b 265 358 371 685 265 532 l 260 358 b 139 888 260 532 154 685 l 139 914 b 263 1053 139 992 176 1053 b 388 914 349 1053 388 992 b 386 888 388 906 386 897 m 139 111 b 264 236 139 181 194 236 b 389 111 333 236 389 181 b 264 -14 389 42 333 -14 b 139 111 194 -14 139 42 "},"'":{"ha":361,"x_min":0,"x_max":0,"o":"m 290 918 b 183 629 275 814 183 782 l 178 629 b 71 918 178 782 86 814 b 69 943 69 928 69 935 b 181 1056 69 1011 119 1056 b 292 943 242 1056 292 1011 b 290 918 292 935 292 928 "},"\"":{"ha":667,"x_min":0,"x_max":0,"o":"m 596 918 b 489 629 581 814 489 782 l 483 629 b 376 918 483 782 392 814 b 375 943 375 928 375 935 b 486 1056 375 1011 425 1056 b 597 943 547 1056 597 1011 b 596 918 597 935 597 928 m 290 918 b 183 629 275 814 183 782 l 178 629 b 71 918 178 782 86 814 b 69 943 69 928 69 935 b 181 1056 69 1011 119 1056 b 292 943 242 1056 292 1011 b 290 918 292 935 292 928 "},"#":{"ha":875,"x_min":0,"x_max":0,"o":"m 274 350 l 321 713 l 83 713 l 83 719 l 322 719 l 365 1049 l 372 1049 l 329 719 l 585 719 l 628 1047 l 635 1049 l 592 719 l 833 719 l 833 713 l 590 713 l 543 350 l 792 350 l 792 343 l 542 343 l 496 -7 l 489 -8 l 535 343 l 279 343 l 233 -7 l 226 -7 l 272 343 l 42 343 l 42 350 m 536 350 l 583 713 l 328 713 l 281 350 "},"$":{"ha":826,"x_min":0,"x_max":0,"o":"m 717 871 b 453 1047 696 968 581 1040 l 453 665 b 771 306 603 600 771 525 b 453 -19 771 124 646 -3 l 453 -111 l 444 -111 l 444 -19 b 411 -21 433 -21 422 -21 b 343 -18 388 -21 364 -19 l 343 -111 l 336 -111 l 336 -17 b 39 215 131 6 39 122 b 160 350 39 293 85 350 b 269 231 215 350 269 306 b 153 126 269 161 207 126 b 49 190 106 126 65 154 b 336 -11 64 111 151 10 l 336 442 b 76 771 204 500 76 576 b 336 1047 76 915 199 1017 l 336 1153 l 343 1153 l 343 1049 b 419 1056 368 1053 394 1056 b 444 1054 428 1056 436 1056 l 444 1153 l 453 1153 l 453 1054 b 729 840 603 1043 729 958 b 611 713 729 763 686 713 b 501 822 556 713 501 750 b 611 929 501 889 557 929 b 717 871 657 929 697 907 m 432 1047 b 343 1033 400 1047 369 1042 l 343 715 b 444 668 374 699 408 683 l 444 1047 b 432 1047 440 1047 436 1047 m 222 875 b 336 719 222 803 269 757 l 336 1031 b 222 875 268 1004 222 947 m 403 -14 b 444 -11 418 -14 432 -12 l 444 396 b 343 439 413 410 378 424 l 343 -11 b 403 -14 363 -12 382 -14 m 625 194 b 453 392 625 297 549 349 l 453 -10 b 625 194 567 7 625 88 "},"%":{"ha":1417,"x_min":0,"x_max":0,"o":"m 49 750 b 354 1056 49 949 197 1056 b 660 750 511 1056 660 949 b 354 444 660 551 483 444 b 49 750 197 444 49 551 m 264 750 b 354 450 264 561 286 450 b 444 750 422 450 444 561 b 354 1050 444 939 422 1050 b 264 750 286 1050 264 939 m 1076 1042 l 347 0 l 340 0 l 1069 1042 m 757 292 b 1063 597 757 490 906 597 b 1368 292 1219 597 1368 490 b 1063 -14 1368 93 1192 -14 b 757 292 906 -14 757 93 m 972 292 b 1063 -8 972 103 994 -8 b 1153 292 1131 -8 1153 103 b 1063 592 1153 481 1131 592 b 972 292 994 592 972 481 "},"&":{"ha":1196,"x_min":0,"x_max":0,"o":"m 1144 639 l 1144 633 l 1000 633 b 846 222 985 490 933 342 l 988 6 l 1158 6 l 1158 0 l 750 0 l 697 78 b 394 -14 614 21 513 -14 b 56 250 175 -14 56 93 b 375 556 56 424 238 494 l 290 681 b 226 851 254 733 226 803 b 554 1056 226 976 358 1056 b 854 883 738 1056 854 989 b 567 650 854 744 719 721 l 843 228 b 994 633 924 339 981 483 l 811 633 l 811 639 m 563 658 b 647 882 614 694 647 743 b 550 1050 647 961 628 1050 b 446 910 475 1050 446 976 b 547 681 446 854 488 769 m 286 319 b 514 28 286 164 383 28 b 693 83 576 28 638 49 l 383 543 b 286 319 324 504 286 454 "},"(":{"ha":517,"x_min":0,"x_max":0,"o":"m 490 -236 b 90 451 264 -139 90 128 b 490 1111 90 775 264 1014 l 493 1106 b 306 451 356 1015 306 718 b 493 -231 306 185 356 -140 "},")":{"ha":517,"x_min":0,"x_max":0,"o":"m 26 1111 b 426 424 253 1014 426 747 b 26 -236 426 100 253 -139 l 24 -231 b 211 424 161 -140 211 157 b 24 1106 211 690 161 1015 "},"*":{"ha":882,"x_min":0,"x_max":0,"o":"m 331 385 b 438 669 346 489 438 521 b 244 435 310 593 326 499 b 224 421 236 428 231 425 b 71 461 165 386 101 407 b 113 613 40 514 54 579 b 135 624 119 617 125 621 b 435 674 233 663 306 600 b 136 724 306 746 233 685 b 114 735 126 726 121 731 b 72 888 56 768 42 833 b 225 926 103 940 167 961 b 246 913 232 922 238 919 b 439 678 329 847 310 753 b 332 963 436 828 347 860 b 331 988 331 972 331 979 b 442 1100 331 1056 381 1100 b 553 988 503 1100 553 1056 b 551 963 553 979 553 972 b 444 679 536 860 447 828 b 636 913 571 754 554 849 b 657 926 644 919 650 922 b 810 886 715 961 779 940 b 768 735 840 833 826 768 b 746 724 761 731 756 726 b 446 674 647 685 575 747 b 746 624 576 601 649 663 b 768 613 756 621 761 617 b 810 460 826 579 840 514 b 657 421 779 407 715 386 b 636 435 650 425 644 428 b 443 669 553 500 572 594 b 550 385 446 519 535 488 b 551 360 551 375 551 368 b 440 247 551 292 501 247 b 329 360 379 247 329 292 b 331 385 329 368 329 375 "},"+":{"ha":736,"x_min":0,"x_max":0,"o":"m 365 436 l 83 436 l 83 442 l 365 442 l 365 722 l 371 722 l 371 442 l 653 442 l 653 436 l 371 436 l 371 153 l 365 153 "},",":{"ha":382,"x_min":0,"x_max":0,"o":"m 56 110 b 190 233 56 176 117 233 b 329 47 265 233 329 169 b 53 -211 329 -92 219 -211 l 53 -206 b 314 114 215 -206 353 -81 b 181 -14 306 50 256 -14 b 56 110 101 -14 56 43 "},"-":{"ha":500,"x_min":0,"x_max":0,"o":"m 417 385 l 417 379 l 83 379 l 83 385 "},".":{"ha":361,"x_min":0,"x_max":0,"o":"m 56 111 b 181 236 56 181 111 236 b 306 111 250 236 306 181 b 181 -14 306 42 250 -14 b 56 111 111 -14 56 42 "},"/":{"ha":722,"x_min":0,"x_max":0,"o":"m 667 1083 l 61 -208 l 56 -208 l 661 1083 "},":":{"ha":360,"x_min":0,"x_max":0,"o":"m 56 625 b 181 750 56 694 111 750 b 306 625 250 750 306 694 b 181 500 306 556 250 500 b 56 625 111 500 56 556 m 56 111 b 181 236 56 181 111 236 b 306 111 250 236 306 181 b 181 -14 306 42 250 -14 b 56 111 111 -14 56 42 "},";":{"ha":385,"x_min":0,"x_max":0,"o":"m 57 625 b 182 750 57 694 113 750 b 307 625 251 750 307 694 b 182 500 307 556 251 500 b 57 625 113 500 57 556 m 57 110 b 192 233 57 176 118 233 b 331 47 267 233 331 169 b 54 -211 331 -92 221 -211 l 54 -206 b 315 114 217 -206 354 -81 b 182 -14 307 50 257 -14 b 57 110 103 -14 57 43 "},"<":{"ha":778,"x_min":0,"x_max":0,"o":"m 83 542 l 694 833 l 694 828 l 88 539 l 694 249 l 694 243 l 83 535 "},"=":{"ha":778,"x_min":0,"x_max":0,"o":"m 694 711 l 694 706 l 83 706 l 83 711 m 694 503 l 694 497 l 83 497 l 83 503 "},">":{"ha":778,"x_min":0,"x_max":0,"o":"m 694 535 l 83 243 l 83 249 l 690 539 l 83 828 l 83 833 l 694 542 "},"?":{"ha":813,"x_min":0,"x_max":0,"o":"m 347 497 b 519 778 475 533 519 649 b 364 1044 519 908 501 1044 b 97 847 222 1044 108 928 b 197 903 106 869 143 903 b 311 799 258 903 311 865 b 197 686 311 726 260 686 b 83 807 128 686 83 732 b 397 1056 83 928 214 1056 b 743 778 607 1056 743 944 b 353 493 743 618 583 506 l 353 339 l 347 339 l 347 497 m 249 111 b 374 236 249 181 304 236 b 499 111 443 236 499 181 b 374 -14 499 42 443 -14 b 249 111 304 -14 249 42 "},"@":{"ha":1403,"x_min":0,"x_max":0,"o":"m 806 496 b 801 425 806 472 804 449 l 871 722 l 1079 722 l 978 283 b 1011 118 968 240 925 118 b 1321 557 1176 118 1321 321 b 811 1092 1321 807 1160 1092 b 82 293 411 1092 82 725 b 582 -292 82 -139 332 -292 b 1085 -85 808 -292 968 -221 l 1090 -89 b 582 -297 974 -225 808 -297 b 76 293 328 -297 76 -143 b 813 1097 76 728 406 1097 b 1326 557 1164 1097 1326 811 b 939 94 1326 328 1197 94 b 769 286 774 94 751 206 b 547 97 728 174 650 97 b 339 319 431 97 339 175 b 658 735 339 528 490 735 b 806 496 783 735 806 610 m 800 481 b 724 683 800 539 797 683 b 563 321 649 683 563 493 b 632 149 563 228 583 149 b 800 481 713 149 800 308 "},"A":{"ha":1086,"x_min":0,"x_max":0,"o":"m 157 6 l 275 340 l 275 342 l 528 1063 l 600 1063 l 968 6 l 1067 6 l 1067 0 l 594 0 l 594 6 l 718 6 l 610 336 l 278 336 l 163 6 l 331 6 l 331 0 l 25 0 l 25 6 m 281 342 l 608 342 l 450 828 "},"B":{"ha":968,"x_min":0,"x_max":0,"o":"m 25 0 l 25 6 l 150 6 l 150 1036 l 25 1036 l 25 1042 l 497 1042 b 872 785 728 1042 872 965 b 585 536 872 633 772 553 b 914 278 772 524 914 454 b 525 0 914 76 769 0 m 364 1036 l 364 538 l 469 538 b 650 771 568 538 650 606 b 469 1036 650 936 568 1036 m 364 532 l 364 6 l 483 6 b 678 292 596 6 678 126 b 483 532 678 457 596 532 "},"C":{"ha":975,"x_min":0,"x_max":0,"o":"m 919 0 l 914 0 l 800 79 b 558 -14 739 21 658 -14 b 58 521 249 -14 58 211 b 558 1056 58 831 249 1056 b 776 969 646 1056 718 1024 l 900 1042 l 906 1042 l 906 736 l 900 736 b 572 1044 851 914 728 1044 b 303 521 365 1044 303 774 b 572 -3 303 268 365 -3 b 914 306 761 -3 872 138 l 919 306 "},"D":{"ha":1051,"x_min":0,"x_max":0,"o":"m 25 0 l 25 6 l 150 6 l 150 1036 l 25 1036 l 25 1042 l 469 1042 b 997 521 800 1042 997 831 b 469 0 997 211 786 0 m 364 1036 l 364 6 l 469 6 b 753 521 683 6 753 247 b 469 1036 753 794 669 1036 "},"E":{"ha":871,"x_min":0,"x_max":0,"o":"m 594 365 b 414 536 574 458 493 536 l 364 536 l 364 6 l 511 6 b 825 313 701 6 804 136 l 831 313 l 831 0 l 25 0 l 25 6 l 150 6 l 150 1036 l 25 1036 l 25 1042 l 817 1042 l 817 757 l 811 757 b 525 1036 790 906 688 1036 l 364 1036 l 364 542 l 414 542 b 594 706 493 542 574 613 l 600 706 l 600 365 l 594 365 "},"F":{"ha":836,"x_min":0,"x_max":0,"o":"m 150 6 l 150 1036 l 25 1036 l 25 1042 l 794 1042 l 794 757 l 789 757 b 525 1036 768 906 681 1036 l 364 1036 l 364 521 l 400 521 b 594 685 507 521 574 592 l 600 685 l 600 344 l 594 344 b 400 515 574 438 507 515 l 364 515 l 364 6 l 503 6 l 503 0 l 25 0 l 25 6 "},"G":{"ha":1051,"x_min":0,"x_max":0,"o":"m 1039 399 l 1039 393 l 969 393 l 969 215 b 553 -14 879 121 779 -14 b 58 521 243 -14 58 197 b 572 1056 58 844 290 1056 b 790 975 653 1056 729 1025 l 928 1042 l 933 1042 l 933 736 l 928 736 b 592 1044 900 885 758 1044 b 303 521 385 1044 303 774 b 553 -7 303 268 353 -7 b 739 174 669 -7 718 115 l 739 393 l 594 393 l 594 399 "},"H":{"ha":1100,"x_min":0,"x_max":0,"o":"m 150 6 l 150 1036 l 25 1036 l 25 1042 l 489 1042 l 489 1036 l 364 1036 l 364 517 l 739 517 l 739 1036 l 614 1036 l 614 1042 l 1081 1042 l 1081 1036 l 956 1036 l 956 6 l 1081 6 l 1081 0 l 614 0 l 614 6 l 739 6 l 739 511 l 364 511 l 364 6 l 489 6 l 489 0 l 25 0 l 25 6 "},"I":{"ha":579,"x_min":0,"x_max":0,"o":"m 178 6 l 178 1036 l 25 1036 l 25 1042 l 558 1042 l 558 1036 l 392 1036 l 392 6 l 558 6 l 558 0 l 25 0 l 25 6 "},"J":{"ha":740,"x_min":0,"x_max":0,"o":"m 719 1042 l 719 1036 l 581 1036 l 581 236 b 247 -42 525 104 450 -42 b 17 146 106 -42 17 42 b 144 278 17 225 75 278 b 264 154 207 278 264 232 b 144 31 264 85 211 31 b 50 61 99 31 61 47 b 244 -36 78 14 147 -36 b 367 264 350 -36 367 69 l 367 1036 l 186 1036 l 186 1042 "},"K":{"ha":1065,"x_min":0,"x_max":0,"o":"m 150 6 l 150 1036 l 25 1036 l 25 1042 l 503 1042 l 503 1036 l 364 1036 l 364 493 l 828 1036 l 664 1036 l 664 1042 l 997 1042 l 997 1036 l 839 1036 l 543 689 l 947 6 l 1058 6 l 1058 0 l 558 0 l 558 6 l 697 6 l 403 525 l 364 481 l 364 6 l 489 6 l 489 0 l 25 0 l 25 6 "},"L":{"ha":854,"x_min":0,"x_max":0,"o":"m 25 0 l 25 6 l 150 6 l 150 1036 l 25 1036 l 25 1042 l 489 1042 l 489 1036 l 364 1036 l 364 6 l 507 6 b 821 313 711 6 800 136 l 826 313 l 826 0 "},"M":{"ha":1225,"x_min":0,"x_max":0,"o":"m 131 6 l 131 1036 l 25 1036 l 25 1042 l 350 1042 l 626 297 l 889 1042 l 1206 1042 l 1206 1036 l 1108 1036 l 1108 6 l 1206 6 l 1206 0 l 781 0 l 781 6 l 892 6 l 892 1033 l 525 -14 l 519 -14 l 136 1035 l 136 6 l 244 6 l 244 0 l 31 0 l 31 6 "},"N":{"ha":1039,"x_min":0,"x_max":0,"o":"m 164 6 l 164 1036 l 25 1036 l 25 1042 l 419 1042 l 867 354 l 867 1036 l 708 1036 l 708 1042 l 1019 1042 l 1019 1036 l 872 1036 l 872 -14 l 864 -14 l 169 1033 l 169 6 l 331 6 l 331 0 l 25 0 l 25 6 "},"O":{"ha":1058,"x_min":0,"x_max":0,"o":"m 531 -14 b 58 521 235 -14 58 218 b 531 1056 58 824 249 1056 b 1003 521 813 1056 1003 824 b 531 -14 1003 218 826 -14 m 531 1050 b 303 521 351 1050 303 808 b 531 -8 303 233 338 -8 b 761 521 724 -8 761 233 b 531 1050 761 808 710 1050 "},"P":{"ha":933,"x_min":0,"x_max":0,"o":"m 150 6 l 150 1036 l 25 1036 l 25 1042 l 503 1042 b 886 750 768 1042 886 931 b 503 469 886 569 768 469 l 364 469 l 364 6 l 489 6 l 489 0 l 25 0 l 25 6 m 364 1036 l 364 475 l 475 475 b 650 750 594 475 650 626 b 475 1036 650 874 594 1036 "},"Q":{"ha":1058,"x_min":0,"x_max":0,"o":"m 808 -347 b 406 1 467 -347 407 -271 b 58 521 186 57 58 264 b 531 1056 58 824 249 1056 b 1003 521 813 1056 1003 824 b 650 0 1003 261 874 54 b 808 -342 650 -250 660 -342 m 531 1050 b 303 521 351 1050 303 808 b 531 -8 303 233 338 -8 b 761 521 724 -8 761 233 b 531 1050 761 808 710 1050 "},"R":{"ha":1031,"x_min":0,"x_max":0,"o":"m 164 6 l 164 1036 l 25 1036 l 25 1042 l 511 1042 b 900 785 742 1042 900 965 b 589 535 900 624 786 550 b 939 4 1040 532 768 4 b 1014 22 968 4 994 14 l 1017 17 b 850 -11 994 4 933 -11 b 475 532 471 -11 817 532 l 378 532 l 378 6 l 517 6 l 517 0 l 25 0 l 25 6 m 378 1036 l 378 538 l 475 538 b 678 785 608 538 678 619 b 475 1036 678 950 608 1036 "},"S":{"ha":829,"x_min":0,"x_max":0,"o":"m 58 -14 l 58 313 l 65 313 b 419 -14 118 149 217 -14 b 635 194 553 -14 635 72 b 72 778 635 458 72 375 b 381 1056 72 951 219 1056 b 590 975 465 1056 535 1028 l 714 1056 l 719 1056 l 719 743 l 713 743 b 389 1047 657 935 547 1047 b 219 881 276 1047 219 976 b 775 299 219 644 775 701 b 428 -21 775 104 624 -21 b 192 74 325 -21 250 17 l 64 -14 "},"T":{"ha":940,"x_min":0,"x_max":0,"o":"m 364 6 l 364 1036 l 275 1036 b 31 708 126 1036 51 885 l 25 708 l 25 1042 l 919 1042 l 919 708 l 914 708 b 669 1036 893 885 818 1036 l 581 1036 l 581 6 l 733 6 l 733 0 l 211 0 l 211 6 "},"U":{"ha":1003,"x_min":0,"x_max":0,"o":"m 503 1042 l 503 1036 l 364 1036 l 364 333 b 578 -6 364 150 399 -6 b 842 319 740 -6 842 94 l 842 1036 l 711 1036 l 711 1042 l 983 1042 l 983 1036 l 847 1036 l 847 319 b 525 -21 847 90 751 -21 b 150 319 264 -21 150 79 l 150 1036 l 25 1036 l 25 1042 "},"V":{"ha":1072,"x_min":0,"x_max":0,"o":"m 926 1036 l 753 1036 l 753 1042 l 1058 1042 l 1058 1036 l 935 1036 l 556 -21 l 483 -21 l 115 1036 l 17 1036 l 17 1042 l 517 1042 l 517 1036 l 365 1036 l 633 214 "},"W":{"ha":1531,"x_min":0,"x_max":0,"o":"m 1054 1036 l 924 685 l 1083 239 l 1382 1036 l 1239 1036 l 1239 1042 l 1517 1042 l 1517 1036 l 1390 1036 l 997 -14 l 956 -14 l 768 503 l 572 -14 l 511 -14 l 129 1036 l 17 1036 l 17 1042 l 1178 1042 l 1178 1036 m 764 513 l 574 1036 l 374 1036 l 660 239 m 921 694 l 1049 1036 l 797 1036 "},"X":{"ha":1100,"x_min":0,"x_max":0,"o":"m 171 6 l 478 469 l 153 1036 l 67 1036 l 67 1042 l 539 1042 l 539 1036 l 397 1036 l 624 646 l 871 1036 l 706 1036 l 706 1042 l 1011 1042 l 1011 1036 l 879 1036 l 628 639 l 994 6 l 1086 6 l 1086 0 l 614 0 l 614 6 l 744 6 l 482 464 l 179 6 l 350 6 l 350 0 l 17 0 l 17 6 "},"Y":{"ha":1024,"x_min":0,"x_max":0,"o":"m 419 6 l 419 500 l 110 1036 l 17 1036 l 17 1042 l 503 1042 l 503 1036 l 360 1036 l 631 539 l 881 1036 l 719 1036 l 719 1042 l 1011 1042 l 1011 1036 l 889 1036 l 636 532 l 636 6 l 775 6 l 775 0 l 294 0 l 294 6 "},"Z":{"ha":857,"x_min":0,"x_max":0,"o":"m 794 1042 l 794 1036 l 261 6 l 517 6 b 803 285 707 6 775 108 l 808 285 l 808 0 l 17 0 l 17 6 l 553 1036 l 336 1036 b 50 785 146 1036 78 933 l 44 785 l 44 1042 "},"[":{"ha":493,"x_min":0,"x_max":0,"o":"m 76 -208 l 76 1083 l 451 1083 l 451 1078 l 285 1078 l 285 -203 l 451 -203 l 451 -208 "},"\\":{"ha":722,"x_min":0,"x_max":0,"o":"m 667 -208 l 660 -208 l 56 1083 l 63 1083 "},"]":{"ha":493,"x_min":0,"x_max":0,"o":"m 208 -203 l 208 1078 l 42 1078 l 42 1083 l 417 1083 l 417 -208 l 42 -208 l 42 -203 "},"^":{"ha":757,"x_min":0,"x_max":0,"o":"m 143 872 l 139 875 l 333 1069 l 424 1069 l 618 875 l 614 872 l 378 1004 "},"_":{"ha":778,"x_min":0,"x_max":0,"o":"m 785 -206 l 785 -211 l -7 -211 l -7 -206 "},"`":{"ha":569,"x_min":0,"x_max":0,"o":"m 167 972 b 76 1049 119 967 76 1001 b 181 1122 76 1096 126 1142 l 489 1010 l 486 1004 l 167 972 "},"a":{"ha":800,"x_min":0,"x_max":0,"o":"m 454 351 l 454 424 b 322 642 454 531 426 642 b 154 585 246 642 179 610 b 322 504 247 621 322 569 b 206 404 322 442 261 404 b 99 501 143 404 99 444 b 360 650 99 590 219 650 b 649 424 589 650 649 550 l 649 64 b 700 13 649 33 667 13 b 796 89 722 13 768 32 l 801 88 b 617 -14 769 18 697 -14 b 454 108 531 -14 454 14 l 454 182 b 238 -14 438 54 369 -14 b 50 157 128 -14 50 54 b 354 351 50 274 151 351 m 339 43 b 454 251 394 43 454 93 l 454 346 l 403 346 b 261 175 318 346 261 267 b 339 43 261 92 289 43 "},"b":{"ha":858,"x_min":0,"x_max":0,"o":"m 22 1036 l 22 1042 l 308 1042 l 308 411 b 525 651 328 565 403 651 b 819 319 676 651 819 528 b 525 -14 819 111 676 -14 b 308 229 404 -14 329 74 l 308 0 l 22 0 l 22 6 l 114 6 l 114 1036 m 308 319 b 481 6 308 108 393 6 b 597 319 563 6 597 119 b 481 632 597 519 563 632 b 308 319 393 632 308 531 "},"c":{"ha":710,"x_min":0,"x_max":0,"o":"m 625 528 b 419 644 603 592 514 644 b 272 319 289 644 272 450 b 419 0 272 161 303 0 b 651 199 536 0 615 82 l 658 199 b 388 -14 622 78 542 -14 b 43 319 185 -14 43 97 b 396 653 43 514 165 653 b 658 464 544 653 658 571 b 547 353 658 393 610 353 b 433 461 492 353 433 381 b 539 567 433 531 492 567 b 625 528 582 567 610 549 "},"d":{"ha":858,"x_min":0,"x_max":0,"o":"m 839 0 l 554 0 l 554 239 b 338 -14 536 78 463 -14 b 43 319 186 -14 43 111 b 338 651 43 528 186 651 b 554 400 461 651 536 561 l 554 1036 l 463 1036 l 463 1042 l 749 1042 l 749 6 l 839 6 m 554 319 b 381 632 554 532 467 632 b 265 319 299 632 265 519 b 381 7 265 119 299 7 b 554 319 467 7 554 107 "},"e":{"ha":722,"x_min":0,"x_max":0,"o":"m 686 199 b 383 -14 650 78 551 -14 b 43 319 188 -14 43 104 b 381 653 43 535 185 653 b 685 360 588 653 685 511 l 258 360 b 258 333 258 351 258 342 b 418 -3 258 154 288 -3 b 679 199 549 -3 644 85 l 686 199 m 381 647 b 258 365 292 647 263 513 l 478 365 b 381 647 478 486 469 647 "},"f":{"ha":535,"x_min":0,"x_max":0,"o":"m 133 6 l 133 633 l 15 633 l 15 639 l 133 639 l 133 711 b 469 1056 133 907 268 1056 b 661 897 589 1056 661 976 b 556 783 661 826 618 783 b 442 886 500 783 442 817 b 550 994 442 953 493 994 b 642 944 592 994 622 975 b 471 1050 628 986 579 1050 b 322 750 360 1050 322 926 l 322 639 l 511 639 l 511 633 l 322 633 l 322 6 l 483 6 l 483 0 l 15 0 l 15 6 "},"g":{"ha":850,"x_min":0,"x_max":0,"o":"m 67 90 b 289 229 67 179 181 219 b 57 438 171 243 57 304 b 340 653 57 590 207 653 b 563 579 421 653 507 631 b 704 646 603 629 657 646 b 839 531 796 646 839 583 b 750 429 839 454 792 429 b 664 517 708 429 664 457 b 749 599 664 563 699 599 b 826 551 786 599 819 576 b 704 640 818 594 781 640 b 568 574 658 640 606 622 b 624 438 601 540 624 496 b 340 226 624 285 474 226 b 319 226 333 226 326 226 b 189 160 261 222 189 203 b 331 117 189 118 254 117 b 450 118 379 117 411 118 b 682 -114 554 118 682 75 b 356 -361 682 -282 543 -361 b 22 -186 192 -361 22 -311 b 218 -40 22 -76 149 -46 b 67 90 133 -28 67 10 m 258 438 b 340 232 258 321 265 232 b 422 438 394 232 422 321 b 340 647 422 554 394 647 b 258 438 286 647 258 554 m 189 -154 b 368 -354 189 -262 249 -354 b 643 -172 497 -354 643 -300 b 453 -47 643 -85 543 -47 l 308 -47 b 239 -43 285 -47 261 -46 b 189 -154 196 -71 189 -125 "},"h":{"ha":842,"x_min":0,"x_max":0,"o":"m 114 6 l 114 1036 l 22 1036 l 22 1042 l 308 1042 l 308 410 b 533 653 324 529 374 653 b 731 443 689 653 731 564 l 731 6 l 822 6 l 822 0 l 467 0 l 467 6 l 536 6 l 536 440 b 467 613 536 557 525 613 b 308 310 335 613 308 438 l 308 6 l 378 6 l 378 0 l 22 0 l 22 6 "},"i":{"ha":422,"x_min":0,"x_max":0,"o":"m 86 938 b 203 1056 86 1004 136 1056 b 322 938 269 1056 322 1004 b 203 819 322 871 269 819 b 86 938 136 819 86 871 m 119 6 l 119 633 l 29 633 l 29 639 l 314 639 l 314 6 l 406 6 l 406 0 l 29 0 l 29 6 "},"j":{"ha":433,"x_min":0,"x_max":0,"o":"m 108 938 b 228 1056 108 1004 161 1056 b 344 938 294 1056 344 1004 b 228 819 344 871 294 819 b 108 938 161 819 108 871 m 336 -17 b 33 -361 336 -199 228 -361 b -178 -196 -93 -361 -178 -287 b -64 -82 -178 -126 -125 -82 b 47 -185 -8 -82 47 -115 b -72 -290 47 -251 0 -290 b -164 -219 -125 -290 -158 -256 b 17 -353 -161 -286 -86 -353 b 138 29 163 -353 138 -147 l 142 633 l 22 633 l 22 639 l 336 639 "},"k":{"ha":869,"x_min":0,"x_max":0,"o":"m 142 6 l 142 1036 l 22 1036 l 22 1042 l 336 1042 l 336 397 l 667 633 l 499 633 l 499 639 l 797 639 l 797 633 l 676 633 l 449 467 l 807 6 l 864 6 l 864 0 l 479 0 l 479 6 l 568 6 l 336 317 l 336 6 l 411 6 l 411 0 l 22 0 l 22 6 "},"l":{"ha":474,"x_min":0,"x_max":0,"o":"m 142 6 l 142 1036 l 22 1036 l 22 1042 l 336 1042 l 336 6 l 456 6 l 456 0 l 22 0 l 22 6 "},"m":{"ha":1210,"x_min":0,"x_max":0,"o":"m 114 6 l 114 633 l 22 633 l 22 639 l 308 639 l 308 417 b 517 653 322 533 368 653 b 703 443 656 653 703 564 l 703 418 b 911 653 717 535 763 653 b 1100 443 1050 653 1100 564 l 1100 6 l 1192 6 l 1192 0 l 839 0 l 839 6 l 906 6 l 906 440 b 842 614 906 557 894 614 b 703 310 733 614 703 446 l 703 6 l 771 6 l 771 0 l 442 0 l 442 6 l 508 6 l 508 440 b 446 614 508 557 499 614 b 308 310 339 614 308 446 l 308 6 l 375 6 l 375 0 l 22 0 l 22 6 "},"n":{"ha":842,"x_min":0,"x_max":0,"o":"m 114 6 l 114 633 l 22 633 l 22 639 l 308 639 l 308 410 b 533 653 324 529 374 653 b 731 443 689 653 731 564 l 731 6 l 822 6 l 822 0 l 467 0 l 467 6 l 536 6 l 536 440 b 467 613 536 557 525 613 b 308 310 336 613 308 438 l 308 6 l 378 6 l 378 0 l 22 0 l 22 6 "},"o":{"ha":761,"x_min":0,"x_max":0,"o":"m 43 319 b 382 653 43 500 172 653 b 721 319 592 653 721 500 b 382 -14 721 139 592 -14 b 43 319 172 -14 43 139 m 251 319 b 382 -8 251 154 279 -8 b 513 319 485 -8 513 154 b 382 647 513 485 485 647 b 251 319 279 647 251 485 "},"p":{"ha":858,"x_min":0,"x_max":0,"o":"m 114 -342 l 114 633 l 22 633 l 22 639 l 308 639 l 308 411 b 525 651 328 565 403 651 b 819 319 676 651 819 528 b 525 -14 819 111 676 -14 b 308 229 404 -14 329 74 l 308 -342 l 400 -342 l 400 -347 l 22 -347 l 22 -342 m 308 319 b 481 6 308 107 394 6 b 597 319 564 6 597 121 b 481 632 597 518 564 632 b 308 319 394 632 308 532 "},"q":{"ha":858,"x_min":0,"x_max":0,"o":"m 839 -347 l 463 -347 l 463 -342 l 554 -342 l 554 239 b 338 -14 536 78 463 -14 b 43 319 186 -14 43 111 b 338 651 43 528 186 651 b 554 400 461 651 536 561 l 554 639 l 839 639 l 839 633 l 749 633 l 749 -342 l 839 -342 m 554 319 b 381 632 554 532 467 632 b 265 319 299 632 265 518 b 381 7 265 121 299 7 b 554 319 469 7 554 107 "},"r":{"ha":649,"x_min":0,"x_max":0,"o":"m 114 6 l 114 633 l 22 633 l 22 639 l 308 639 l 308 436 b 489 653 321 556 364 653 b 644 506 567 653 644 594 b 528 386 644 442 601 386 b 411 497 461 386 411 428 b 622 553 411 608 563 653 b 486 647 604 613 543 647 b 308 310 321 647 308 465 l 308 6 l 400 6 l 400 0 l 22 0 l 22 6 "},"s":{"ha":611,"x_min":0,"x_max":0,"o":"m 53 -14 l 53 201 l 58 201 b 321 -8 94 76 194 -8 b 475 100 410 -8 475 29 b 67 451 475 253 67 179 b 282 651 67 561 150 651 b 440 593 347 651 400 628 l 522 653 l 528 653 l 528 458 l 522 458 b 283 646 494 546 414 646 b 156 554 207 646 156 610 b 578 204 156 406 578 465 b 326 -14 578 60 454 -14 b 142 53 253 -14 190 11 l 58 -14 "},"t":{"ha":496,"x_min":0,"x_max":0,"o":"m 494 142 b 271 -10 461 53 383 -10 b 110 161 136 -10 110 64 l 110 633 l 8 633 l 8 639 l 110 639 l 110 778 b 304 819 172 778 256 792 l 304 639 l 453 639 l 453 633 l 304 633 l 304 117 b 357 22 304 47 319 22 b 489 143 401 22 458 68 l 494 142 "},"u":{"ha":842,"x_min":0,"x_max":0,"o":"m 308 199 b 378 26 308 82 319 26 b 536 329 508 26 536 201 l 536 633 l 447 633 l 447 639 l 731 639 l 731 6 l 822 6 l 822 0 l 536 0 l 536 229 b 311 -14 521 110 471 -14 b 114 196 156 -14 114 75 l 114 633 l 22 633 l 22 639 l 308 639 "},"v":{"ha":783,"x_min":0,"x_max":0,"o":"m 658 633 l 525 633 l 525 639 l 783 639 l 783 633 l 667 633 l 404 -14 l 350 -14 l 83 633 l -3 633 l -3 639 l 403 639 l 403 633 l 299 633 l 469 167 "},"w":{"ha":1132,"x_min":0,"x_max":0,"o":"m 617 653 l 714 653 l 849 208 l 990 633 l 846 633 l 846 639 l 1131 639 l 1131 633 l 999 633 l 781 -14 l 725 -14 l 547 467 l 350 -14 l 294 -14 l 82 633 l -3 633 l -3 639 l 411 639 l 411 633 l 290 633 l 421 179 "},"x":{"ha":785,"x_min":0,"x_max":0,"o":"m 108 6 l 325 263 l 93 633 l 18 633 l 18 639 l 411 639 l 411 633 l 315 633 l 454 415 l 638 633 l 519 633 l 519 639 l 758 639 l 758 633 l 646 633 l 457 410 l 715 6 l 775 6 l 775 0 l 396 0 l 396 6 l 485 6 l 329 256 l 118 6 l 263 6 l 263 0 l 11 0 l 11 6 "},"y":{"ha":811,"x_min":0,"x_max":0,"o":"m 419 -32 l 75 633 l -10 633 l -10 639 l 439 639 l 439 633 l 306 633 l 525 200 l 722 633 l 583 633 l 583 639 l 831 639 l 831 633 l 731 633 l 318 -268 b 200 -358 293 -321 260 -358 b 92 -254 144 -358 92 -321 b 203 -144 92 -194 138 -144 b 310 -271 264 -144 315 -196 "},"z":{"ha":653,"x_min":0,"x_max":0,"o":"m 281 633 b 60 400 150 633 81 540 l 54 400 l 54 639 l 611 639 l 611 633 l 235 6 l 375 6 b 626 256 538 6 606 83 l 633 256 l 633 0 l 15 0 l 15 6 l 390 633 l 281 633 "},"{":{"ha":461,"x_min":0,"x_max":0,"o":"m 419 -208 b 76 0 156 -208 76 -137 b 160 326 76 176 160 239 b 76 435 160 383 118 421 l 76 442 b 160 550 118 456 160 493 b 76 876 160 638 76 700 b 419 1083 76 1014 156 1083 l 419 1078 b 289 899 333 1078 289 986 b 336 619 289 807 336 744 b 90 438 336 507 267 465 b 336 257 267 411 336 369 b 289 -22 336 132 289 69 b 419 -203 289 -110 333 -203 l 419 -208 "},"|":{"ha":319,"x_min":0,"x_max":0,"o":"m 163 1083 l 163 -347 l 157 -347 l 157 1083 "},"}":{"ha":461,"x_min":0,"x_max":0,"o":"m 42 -203 b 172 -24 128 -203 172 -111 b 125 256 172 68 125 131 b 371 438 125 368 194 410 b 125 618 194 464 125 506 b 172 897 125 743 172 806 b 42 1078 172 985 128 1078 l 42 1083 b 385 875 306 1083 385 1013 b 301 549 385 699 301 636 b 385 440 301 492 343 454 l 385 433 b 301 325 343 419 301 382 b 385 -1 301 238 385 175 b 42 -208 385 -139 306 -208 "},"~":{"ha":956,"x_min":0,"x_max":0,"o":"m 283 586 b 144 476 210 586 144 556 l 139 476 b 346 729 139 636 222 729 b 658 599 499 729 519 599 b 811 708 746 599 811 629 l 817 708 b 610 456 817 549 733 456 b 283 586 433 456 433 586 "},"¡":{"ha":443,"x_min":0,"x_max":0,"o":"m 304 611 b 179 486 304 542 249 486 b 54 611 110 486 54 542 b 179 736 54 681 110 736 b 304 611 249 736 304 681 m 57 -165 b 178 364 72 38 178 190 l 183 364 b 304 -165 183 190 289 38 l 304 -192 b 181 -331 304 -269 267 -331 b 56 -192 94 -331 56 -269 b 57 -165 56 -183 57 -175 "},"¢":{"ha":710,"x_min":0,"x_max":0,"o":"m 625 528 b 419 644 603 592 514 644 b 394 642 411 644 403 643 l 394 3 b 419 0 403 1 411 0 b 651 199 536 0 615 82 l 658 199 b 394 -14 622 79 544 -11 l 394 -118 l 390 -118 l 390 -14 l 388 -14 b 43 319 185 -14 43 97 b 390 653 43 513 164 650 l 390 771 l 394 771 l 394 653 l 396 653 b 658 464 544 653 658 571 b 547 353 658 393 610 353 b 433 461 492 353 433 381 b 539 567 433 531 492 567 b 625 528 582 567 610 549 m 272 319 b 390 4 272 175 297 29 l 390 640 b 272 319 286 614 272 439 "},"£":{"ha":911,"x_min":0,"x_max":0,"o":"m 136 764 b 533 1056 136 958 289 1056 b 878 811 758 1056 878 925 b 761 679 878 733 828 679 b 633 799 699 679 633 722 b 754 917 633 868 693 917 b 858 857 815 917 846 878 b 563 1044 836 949 733 1044 b 374 813 418 1044 374 929 b 443 557 374 701 424 639 l 646 557 l 646 551 l 444 551 b 451 493 449 533 451 514 b 106 -18 451 239 96 236 b 378 218 131 83 246 218 b 656 171 503 218 564 171 b 872 301 756 171 872 188 l 878 301 b 621 -42 878 31 779 -42 b 260 42 431 -42 347 42 b 107 -28 203 42 121 14 l 100 -28 b 249 363 74 165 249 274 b 197 551 249 436 224 494 l 21 551 l 21 557 l 194 557 b 136 764 167 619 136 682 "},"¥":{"ha":1024,"x_min":0,"x_max":0,"o":"m 419 6 l 419 303 l 222 303 l 222 308 l 419 308 l 419 500 l 413 511 l 222 511 l 222 517 l 410 517 l 110 1036 l 17 1036 l 17 1042 l 503 1042 l 503 1036 l 360 1036 l 631 539 l 881 1036 l 719 1036 l 719 1042 l 1011 1042 l 1011 1036 l 889 1036 l 636 532 l 636 517 l 833 517 l 833 511 l 636 511 l 636 308 l 833 308 l 833 303 l 636 303 l 636 6 l 775 6 l 775 0 l 294 0 l 294 6 "},"¦":{"ha":306,"x_min":0,"x_max":0,"o":"m 156 1083 l 156 568 l 150 568 l 150 1083 m 156 231 l 156 -347 l 150 -347 l 150 231 "},"§":{"ha":661,"x_min":0,"x_max":0,"o":"m 606 225 b 318 -14 606 81 492 -14 b 42 182 196 -14 42 35 b 146 296 42 246 83 296 b 242 197 201 296 242 254 b 143 106 242 146 197 106 b 69 140 104 106 78 126 b 318 3 90 49 207 3 b 501 140 447 3 501 81 b 67 486 501 294 67 281 b 178 671 67 578 126 633 b 93 831 128 708 93 757 b 347 1056 93 975 215 1056 b 603 861 463 1056 603 1008 b 497 747 603 797 560 747 b 403 847 442 747 403 790 b 503 942 403 899 449 942 b 574 913 536 942 563 926 b 347 1039 551 996 453 1039 b 188 906 267 1039 188 979 b 608 539 188 751 608 751 b 507 389 608 461 561 422 b 606 225 564 353 606 303 m 171 592 b 490 399 171 489 363 472 b 513 453 504 413 513 429 b 194 660 513 557 318 578 b 171 592 182 642 171 618 "},"©":{"ha":1208,"x_min":0,"x_max":0,"o":"m 69 521 b 604 1056 69 817 308 1056 b 1139 521 900 1056 1139 817 b 604 -14 1139 225 900 -14 b 69 521 308 -14 69 225 m 75 521 b 604 -8 75 229 313 -8 b 1133 521 896 -8 1133 229 b 604 1050 1133 813 896 1050 b 75 521 313 1050 75 813 m 832 208 l 829 208 l 761 256 b 615 200 724 221 676 200 b 315 521 429 200 315 335 b 615 842 315 707 429 842 b 746 790 668 842 711 822 l 821 833 l 824 833 l 824 650 l 821 650 b 624 835 792 757 717 835 b 463 521 500 835 463 672 b 624 207 463 369 500 207 b 829 392 738 207 804 290 l 832 392 "},"ª":{"ha":490,"x_min":0,"x_max":0,"o":"m 475 722 b 364 661 456 681 413 661 b 267 735 313 661 267 678 l 267 779 b 138 661 257 703 217 661 b 25 764 71 661 25 701 b 207 881 25 833 85 881 l 267 881 l 267 924 b 188 1054 267 988 250 1054 b 88 1021 142 1054 101 1035 b 188 972 143 1042 188 1011 b 118 913 188 935 151 913 b 54 971 81 913 54 936 b 210 1060 54 1024 126 1060 b 383 924 347 1060 383 1000 l 383 708 b 414 676 383 689 394 676 b 472 722 428 676 456 689 l 475 722 m 197 696 b 267 821 231 696 267 725 l 267 876 l 236 876 b 151 775 185 876 151 829 b 197 696 151 725 168 696 "},"«":{"ha":1007,"x_min":0,"x_max":0,"o":"m 926 204 l 924 201 l 424 528 l 424 550 l 924 875 l 926 872 l 682 539 m 538 204 l 535 201 l 35 528 l 35 550 l 535 875 l 538 872 l 279 539 "},"¬":{"ha":675,"x_min":0,"x_max":0,"o":"m 83 849 l 83 854 l 592 854 l 592 574 l 586 574 l 586 849 "},"®":{"ha":1208,"x_min":0,"x_max":0,"o":"m 69 521 b 604 1056 69 817 308 1056 b 1139 521 900 1056 1139 817 b 604 -14 1139 225 900 -14 b 69 521 308 -14 69 225 m 75 521 b 604 -8 75 229 313 -8 b 1133 521 896 -8 1133 229 b 604 1050 1133 813 896 1050 b 75 521 313 1050 75 813 m 408 208 l 408 828 l 325 828 l 325 831 l 617 831 b 850 676 754 831 850 785 b 663 526 850 581 781 535 b 874 208 935 525 771 208 b 918 219 890 208 907 214 l 919 215 b 819 199 907 208 869 199 b 594 525 592 199 800 525 l 536 525 l 536 208 l 619 208 l 619 206 l 325 206 l 325 208 m 536 828 l 536 528 l 594 528 b 717 676 675 528 717 578 b 594 828 717 775 675 828 "},"¯":{"ha":558,"x_min":0,"x_max":0,"o":"m 475 663 l 475 657 l 83 657 l 83 663 "},"°":{"ha":444,"x_min":0,"x_max":0,"o":"m 56 944 b 222 1111 56 1036 131 1111 b 389 944 314 1111 389 1036 b 222 778 389 853 314 778 b 56 944 131 778 56 853 m 90 944 b 222 813 90 868 146 813 b 354 944 299 813 354 868 b 222 1076 354 1021 299 1076 b 90 944 146 1076 90 1021 "},"±":{"ha":736,"x_min":0,"x_max":0,"o":"m 365 492 l 83 492 l 83 497 l 365 497 l 365 778 l 371 778 l 371 497 l 653 497 l 653 492 l 371 492 l 371 208 l 365 208 m 653 17 l 653 11 l 83 11 l 83 17 "},"µ":{"ha":800,"x_min":0,"x_max":0,"o":"m 353 -171 b 435 -264 399 -171 435 -211 b 304 -361 435 -318 406 -361 b 124 -168 207 -361 124 -293 l 124 110 b 114 196 117 135 114 164 l 114 633 l 22 633 l 22 639 l 308 639 l 308 199 b 378 26 308 82 319 26 b 536 329 508 26 536 201 l 536 633 l 447 633 l 447 639 l 731 639 l 731 6 l 822 6 l 822 0 l 536 0 l 536 229 b 311 -14 521 110 471 -14 b 128 96 203 -14 150 29 l 128 -168 b 331 -353 128 -289 211 -367 b 269 -257 296 -339 269 -307 b 353 -171 269 -211 307 -171 "},"·":{"ha":360,"x_min":0,"x_max":0,"o":"m 56 597 b 181 722 56 667 111 722 b 306 597 250 722 306 667 b 181 472 306 528 250 472 b 56 597 111 472 56 528 "},"º":{"ha":761,"x_min":0,"x_max":0,"o":"m 185 860 b 388 1060 185 968 261 1060 b 590 860 514 1060 590 968 b 388 660 590 751 514 660 b 185 860 261 660 185 751 m 310 860 b 388 663 310 761 326 663 b 465 860 449 663 465 761 b 388 1057 465 958 449 1057 b 310 860 326 1057 310 958 "},"»":{"ha":1007,"x_min":0,"x_max":0,"o":"m 82 872 l 85 875 l 585 549 l 585 526 l 85 201 l 82 204 l 326 538 m 471 872 l 474 875 l 974 549 l 974 526 l 474 201 l 471 204 l 729 538 "},"¼":{"ha":932,"x_min":0,"x_max":0,"o":"m 139 497 l 139 1117 l 44 1117 l 44 1119 l 268 1119 l 268 497 l 360 497 l 360 494 l 31 494 l 31 497 m 731 903 l 61 -139 l 56 -139 l 725 903 m 871 -143 l 600 -143 l 600 -140 l 679 -140 l 679 35 l 404 35 l 713 482 l 808 482 l 808 38 l 900 38 l 900 35 l 808 35 l 808 -140 l 871 -140 m 679 38 l 679 426 l 411 38 "},"½":{"ha":972,"x_min":0,"x_max":0,"o":"m 139 497 l 139 1117 l 44 1117 l 44 1119 l 268 1119 l 268 497 l 360 497 l 360 494 l 31 494 l 31 497 m 731 903 l 61 -139 l 56 -139 l 725 903 m 507 -140 l 507 -57 l 683 86 b 793 301 757 146 793 211 b 675 476 793 404 753 476 b 521 315 589 476 518 406 b 593 369 531 346 556 369 b 672 299 639 369 672 340 b 590 221 672 253 632 221 b 515 317 549 221 515 253 b 724 493 515 415 593 493 b 926 335 854 493 926 422 b 769 146 926 239 831 193 l 575 -15 l 942 -15 l 942 47 l 944 47 l 944 -140 "},"¾":{"ha":1015,"x_min":0,"x_max":0,"o":"m 450 663 b 221 483 450 550 346 483 b 28 626 89 483 28 557 b 100 703 28 672 58 703 b 167 633 138 703 167 676 b 96 567 167 594 133 567 b 38 599 68 567 49 579 b 203 492 47 547 103 492 b 315 663 293 492 315 572 b 172 828 315 736 292 828 l 172 831 b 290 985 283 831 290 926 b 211 1117 290 1050 268 1117 b 69 1033 150 1117 86 1078 b 125 1061 83 1053 106 1061 b 189 997 158 1061 189 1036 b 121 928 189 953 154 928 b 53 996 83 928 53 951 b 225 1124 53 1068 139 1124 b 425 981 333 1124 425 1072 b 224 829 425 904 382 840 b 450 663 393 818 450 750 m 814 903 l 144 -139 l 139 -139 l 808 903 m 954 -143 l 683 -143 l 683 -140 l 763 -140 l 763 35 l 488 35 l 796 482 l 892 482 l 892 38 l 983 38 l 983 35 l 892 35 l 892 -140 l 954 -140 m 763 38 l 763 426 l 494 38 "},"¿":{"ha":814,"x_min":0,"x_max":0,"o":"m 560 611 b 435 486 560 542 504 486 b 310 611 365 486 310 542 b 435 736 310 681 365 736 b 560 611 504 736 560 681 m 461 225 b 289 -56 333 189 289 74 b 444 -322 289 -186 307 -322 b 711 -125 586 -322 700 -206 b 611 -181 703 -147 665 -181 b 497 -76 550 -181 497 -143 b 611 36 497 -4 549 36 b 725 -85 681 36 725 -10 b 411 -333 725 -206 594 -333 b 65 -56 201 -333 65 -222 b 456 229 65 104 225 217 l 456 383 l 461 383 l 461 225 "},"À":{"ha":1086,"x_min":0,"x_max":0,"o":"m 396 1153 b 306 1229 349 1147 306 1182 b 410 1303 306 1276 356 1322 l 718 1190 l 715 1185 l 396 1153 m 157 6 l 275 340 l 275 342 l 528 1063 l 600 1063 l 968 6 l 1067 6 l 1067 0 l 594 0 l 594 6 l 718 6 l 610 336 l 278 336 l 163 6 l 331 6 l 331 0 l 25 0 l 25 6 m 281 342 l 608 342 l 450 828 "},"Á":{"ha":1086,"x_min":0,"x_max":0,"o":"m 389 1185 l 386 1190 l 694 1303 b 799 1229 749 1322 799 1276 b 708 1153 799 1182 756 1147 m 157 6 l 275 340 l 275 342 l 528 1063 l 600 1063 l 968 6 l 1067 6 l 1067 0 l 594 0 l 594 6 l 718 6 l 610 336 l 278 336 l 163 6 l 331 6 l 331 0 l 25 0 l 25 6 m 281 342 l 608 342 l 450 828 "},"Â":{"ha":1086,"x_min":0,"x_max":0,"o":"m 329 1121 l 326 1125 l 493 1313 l 611 1313 l 778 1125 l 775 1121 l 551 1215 m 157 6 l 275 340 l 275 342 l 528 1063 l 600 1063 l 968 6 l 1067 6 l 1067 0 l 594 0 l 594 6 l 718 6 l 610 336 l 278 336 l 163 6 l 331 6 l 331 0 l 25 0 l 25 6 m 281 342 l 608 342 l 450 828 "},"Ã":{"ha":1086,"x_min":0,"x_max":0,"o":"m 411 1256 b 322 1174 360 1256 322 1225 l 317 1174 b 454 1378 317 1292 365 1378 b 706 1268 565 1378 614 1268 b 794 1350 764 1268 794 1299 l 800 1350 b 676 1146 800 1218 779 1146 b 411 1256 569 1146 511 1256 m 157 6 l 275 340 l 275 342 l 528 1063 l 600 1063 l 968 6 l 1067 6 l 1067 0 l 594 0 l 594 6 l 718 6 l 610 336 l 278 336 l 163 6 l 331 6 l 331 0 l 25 0 l 25 6 m 281 342 l 608 342 l 450 828 "},"Ä":{"ha":1086,"x_min":0,"x_max":0,"o":"m 601 1253 b 708 1358 601 1311 649 1358 b 814 1253 767 1358 814 1311 b 708 1146 814 1193 767 1146 b 601 1253 649 1146 601 1193 m 303 1253 b 410 1358 303 1311 350 1358 b 515 1253 468 1358 515 1311 b 410 1146 515 1193 468 1146 b 303 1253 350 1146 303 1193 m 157 6 l 275 340 l 275 342 l 528 1063 l 600 1063 l 968 6 l 1067 6 l 1067 0 l 594 0 l 594 6 l 718 6 l 610 336 l 278 336 l 163 6 l 331 6 l 331 0 l 25 0 l 25 6 m 281 342 l 608 342 l 450 828 "},"Å":{"ha":1086,"x_min":0,"x_max":0,"o":"m 419 1254 b 558 1379 419 1325 474 1379 b 697 1254 643 1379 697 1325 b 558 1129 697 1183 643 1129 b 419 1254 474 1129 419 1183 m 503 1254 b 558 1135 503 1182 514 1135 b 614 1254 603 1135 614 1182 b 558 1374 614 1326 603 1374 b 503 1254 514 1374 503 1326 m 157 6 l 275 340 l 275 342 l 528 1063 l 600 1063 l 968 6 l 1067 6 l 1067 0 l 594 0 l 594 6 l 718 6 l 610 336 l 278 336 l 163 6 l 331 6 l 331 0 l 25 0 l 25 6 m 281 342 l 608 342 l 450 828 "},"Æ":{"ha":1451,"x_min":0,"x_max":0,"o":"m 147 6 l 729 1042 l 1396 1042 l 1396 757 l 1390 757 b 1111 1036 1369 906 1267 1036 l 944 1036 l 944 542 l 993 542 b 1175 706 1072 542 1154 613 l 1181 706 l 1181 365 l 1175 365 b 993 536 1154 458 1072 536 l 944 536 l 944 6 l 1097 6 b 1404 313 1281 6 1383 136 l 1410 313 l 1410 0 l 604 0 l 604 6 l 729 6 l 729 338 l 343 338 l 157 6 l 326 6 l 326 0 l 21 0 l 21 6 m 729 343 l 729 1029 l 346 343 "},"Ç":{"ha":975,"x_min":0,"x_max":0,"o":"m 535 -256 b 407 -171 535 -182 476 -171 l 525 -12 b 58 521 235 3 58 222 b 558 1056 58 831 249 1056 b 776 969 646 1056 718 1024 l 900 1042 l 906 1042 l 906 736 l 900 736 b 572 1044 851 914 728 1044 b 303 521 365 1044 303 774 b 572 -3 303 268 365 -3 b 914 306 761 -3 872 138 l 919 306 l 919 0 l 914 0 l 800 79 b 558 -14 739 21 658 -14 b 535 -14 550 -14 543 -14 l 458 -115 b 689 -228 592 -119 689 -150 b 413 -356 689 -297 622 -356 l 413 -350 b 535 -256 494 -350 535 -308 "},"È":{"ha":871,"x_min":0,"x_max":0,"o":"m 264 1147 b 174 1224 217 1142 174 1176 b 278 1297 174 1271 224 1317 l 586 1185 l 583 1179 l 264 1147 m 594 365 b 414 536 574 458 493 536 l 364 536 l 364 6 l 511 6 b 825 313 701 6 804 136 l 831 313 l 831 0 l 25 0 l 25 6 l 150 6 l 150 1036 l 25 1036 l 25 1042 l 817 1042 l 817 757 l 811 757 b 525 1036 790 906 688 1036 l 364 1036 l 364 542 l 414 542 b 594 706 493 542 574 613 l 600 706 l 600 365 l 594 365 "},"É":{"ha":871,"x_min":0,"x_max":0,"o":"m 286 1179 l 283 1185 l 592 1297 b 696 1224 646 1317 696 1271 b 606 1147 696 1176 653 1142 m 594 365 b 414 536 574 458 493 536 l 364 536 l 364 6 l 511 6 b 825 313 701 6 804 136 l 831 313 l 831 0 l 25 0 l 25 6 l 150 6 l 150 1036 l 25 1036 l 25 1042 l 817 1042 l 817 757 l 811 757 b 525 1036 790 906 688 1036 l 364 1036 l 364 542 l 414 542 b 594 706 493 542 574 613 l 600 706 l 600 365 l 594 365 "},"Ê":{"ha":871,"x_min":0,"x_max":0,"o":"m 200 1114 l 197 1118 l 364 1306 l 482 1306 l 649 1118 l 646 1114 l 422 1208 m 594 365 b 414 536 574 458 493 536 l 364 536 l 364 6 l 511 6 b 825 313 701 6 804 136 l 831 313 l 831 0 l 25 0 l 25 6 l 150 6 l 150 1036 l 25 1036 l 25 1042 l 817 1042 l 817 757 l 811 757 b 525 1036 790 906 688 1036 l 364 1036 l 364 542 l 414 542 b 594 706 493 542 574 613 l 600 706 l 600 365 l 594 365 "},"Ë":{"ha":871,"x_min":0,"x_max":0,"o":"m 490 1246 b 597 1351 490 1304 538 1351 b 703 1246 656 1351 703 1304 b 597 1139 703 1186 656 1139 b 490 1246 538 1139 490 1186 m 192 1246 b 299 1351 192 1304 239 1351 b 404 1246 357 1351 404 1304 b 299 1139 404 1186 357 1139 b 192 1246 239 1139 192 1186 m 594 365 b 414 536 574 458 493 536 l 364 536 l 364 6 l 511 6 b 825 313 701 6 804 136 l 831 313 l 831 0 l 25 0 l 25 6 l 150 6 l 150 1036 l 25 1036 l 25 1042 l 817 1042 l 817 757 l 811 757 b 525 1036 790 906 688 1036 l 364 1036 l 364 542 l 414 542 b 594 706 493 542 574 613 l 600 706 l 600 365 l 594 365 "},"Ì":{"ha":579,"x_min":0,"x_max":0,"o":"m 142 1147 b 51 1224 94 1142 51 1176 b 156 1297 51 1271 101 1317 l 464 1185 l 461 1179 l 142 1147 m 178 6 l 178 1036 l 25 1036 l 25 1042 l 558 1042 l 558 1036 l 392 1036 l 392 6 l 558 6 l 558 0 l 25 0 l 25 6 "},"Í":{"ha":579,"x_min":0,"x_max":0,"o":"m 136 1179 l 133 1185 l 442 1297 b 546 1224 496 1317 546 1271 b 456 1147 546 1176 503 1142 m 178 6 l 178 1036 l 25 1036 l 25 1042 l 558 1042 l 558 1036 l 392 1036 l 392 6 l 558 6 l 558 0 l 25 0 l 25 6 "},"Î":{"ha":579,"x_min":0,"x_max":0,"o":"m 75 1149 l 72 1153 l 239 1340 l 357 1340 l 524 1153 l 521 1149 l 297 1243 m 178 6 l 178 1036 l 25 1036 l 25 1042 l 558 1042 l 558 1036 l 392 1036 l 392 6 l 558 6 l 558 0 l 25 0 l 25 6 "},"Ï":{"ha":579,"x_min":0,"x_max":0,"o":"m 346 1271 b 453 1376 346 1329 393 1376 b 558 1271 511 1376 558 1329 b 453 1164 558 1211 511 1164 b 346 1271 393 1164 346 1211 m 47 1271 b 154 1376 47 1329 94 1376 b 260 1271 213 1376 260 1329 b 154 1164 260 1211 213 1164 b 47 1271 94 1164 47 1211 m 178 6 l 178 1036 l 25 1036 l 25 1042 l 558 1042 l 558 1036 l 392 1036 l 392 6 l 558 6 l 558 0 l 25 0 l 25 6 "},"Ð":{"ha":1051,"x_min":0,"x_max":0,"o":"m 138 517 l 138 1099 l -29 1099 l -29 1104 l 565 1104 b 1271 583 1007 1104 1271 893 b 565 63 1271 274 989 63 l -29 63 l -29 68 l 138 68 l 138 511 l 42 511 l 42 517 m 424 511 l 424 68 l 565 68 b 944 583 851 68 944 310 b 565 1099 944 857 833 1099 l 424 1099 l 424 517 l 488 517 l 488 511 "},"Ñ":{"ha":1039,"x_min":0,"x_max":0,"o":"m 367 1228 b 278 1146 315 1228 278 1197 l 272 1146 b 410 1350 272 1264 321 1350 b 661 1240 521 1350 569 1240 b 750 1322 719 1240 750 1271 l 756 1322 b 632 1118 756 1190 735 1118 b 367 1228 525 1118 467 1228 m 164 6 l 164 1036 l 25 1036 l 25 1042 l 419 1042 l 867 354 l 867 1036 l 708 1036 l 708 1042 l 1019 1042 l 1019 1036 l 872 1036 l 872 -14 l 864 -14 l 169 1033 l 169 6 l 331 6 l 331 0 l 25 0 l 25 6 "},"Ò":{"ha":1058,"x_min":0,"x_max":0,"o":"m 392 1167 b 301 1243 344 1161 301 1196 b 406 1317 301 1290 351 1336 l 714 1204 l 711 1199 l 392 1167 m 531 -14 b 58 521 235 -14 58 218 b 531 1056 58 824 249 1056 b 1003 521 813 1056 1003 824 b 531 -14 1003 218 826 -14 m 531 1050 b 303 521 351 1050 303 808 b 531 -8 303 233 338 -8 b 761 521 724 -8 761 233 b 531 1050 761 808 710 1050 "},"Ó":{"ha":1058,"x_min":0,"x_max":0,"o":"m 331 1199 l 328 1204 l 636 1317 b 740 1243 690 1336 740 1290 b 650 1167 740 1196 697 1161 m 531 -14 b 58 521 235 -14 58 218 b 531 1056 58 824 249 1056 b 1003 521 813 1056 1003 824 b 531 -14 1003 218 826 -14 m 531 1050 b 303 521 351 1050 303 808 b 531 -8 303 233 338 -8 b 761 521 724 -8 761 233 b 531 1050 761 808 710 1050 "},"Ô":{"ha":1058,"x_min":0,"x_max":0,"o":"m 315 1149 l 313 1153 l 479 1340 l 597 1340 l 764 1153 l 761 1149 l 538 1243 m 531 -14 b 58 521 235 -14 58 218 b 531 1056 58 824 249 1056 b 1003 521 813 1056 1003 824 b 531 -14 1003 218 826 -14 m 531 1050 b 303 521 351 1050 303 808 b 531 -8 303 233 338 -8 b 761 521 724 -8 761 233 b 531 1050 761 808 710 1050 "},"Õ":{"ha":1058,"x_min":0,"x_max":0,"o":"m 392 1228 b 303 1146 340 1228 303 1197 l 297 1146 b 435 1350 297 1264 346 1350 b 686 1240 546 1350 594 1240 b 775 1322 744 1240 775 1271 l 781 1322 b 657 1118 781 1190 760 1118 b 392 1228 550 1118 492 1228 m 531 -14 b 58 521 235 -14 58 218 b 531 1056 58 824 249 1056 b 1003 521 813 1056 1003 824 b 531 -14 1003 218 826 -14 m 531 1050 b 303 521 351 1050 303 808 b 531 -8 303 233 338 -8 b 761 521 724 -8 761 233 b 531 1050 761 808 710 1050 "},"Ö":{"ha":1058,"x_min":0,"x_max":0,"o":"m 599 1271 b 706 1376 599 1329 646 1376 b 811 1271 764 1376 811 1329 b 706 1164 811 1211 764 1164 b 599 1271 646 1164 599 1211 m 300 1271 b 407 1376 300 1329 347 1376 b 513 1271 465 1376 513 1329 b 407 1164 513 1211 465 1164 b 300 1271 347 1164 300 1211 m 531 -14 b 58 521 235 -14 58 218 b 531 1056 58 824 249 1056 b 1003 521 813 1056 1003 824 b 531 -14 1003 218 826 -14 m 531 1050 b 303 521 351 1050 303 808 b 531 -8 303 233 338 -8 b 761 521 724 -8 761 233 b 531 1050 761 808 710 1050 "},"×":{"ha":736,"x_min":0,"x_max":0,"o":"m 363 439 l 164 638 l 168 640 l 367 443 l 565 642 l 569 638 l 371 439 l 571 239 l 567 235 l 367 435 l 167 235 l 164 239 "},"Ø":{"ha":1058,"x_min":0,"x_max":0,"o":"m 531 -14 b 300 43 443 -14 365 7 l 215 -139 l 210 -139 l 296 46 b 58 521 144 133 58 310 b 531 1056 58 824 249 1056 b 746 1004 610 1056 682 1038 l 815 1153 l 821 1153 l 750 1001 b 1003 521 907 915 1003 736 b 531 -14 1003 218 826 -14 m 531 1050 b 303 521 351 1050 303 808 b 344 149 303 376 311 244 l 704 915 b 531 1050 668 999 613 1050 m 761 521 b 707 910 761 672 747 813 l 347 142 b 531 -8 381 49 436 -8 b 761 521 724 -8 761 233 "},"Ù":{"ha":1003,"x_min":0,"x_max":0,"o":"m 372 1153 b 282 1229 325 1147 282 1182 b 386 1303 282 1276 332 1322 l 694 1190 l 692 1185 l 372 1153 m 503 1042 l 503 1036 l 364 1036 l 364 333 b 578 -6 364 150 399 -6 b 842 319 740 -6 842 94 l 842 1036 l 711 1036 l 711 1042 l 983 1042 l 983 1036 l 847 1036 l 847 319 b 525 -21 847 90 751 -21 b 150 319 264 -21 150 79 l 150 1036 l 25 1036 l 25 1042 "},"Ú":{"ha":1003,"x_min":0,"x_max":0,"o":"m 308 1185 l 306 1190 l 614 1303 b 718 1229 668 1322 718 1276 b 628 1153 718 1182 675 1147 m 503 1042 l 503 1036 l 364 1036 l 364 333 b 578 -6 364 150 399 -6 b 842 319 740 -6 842 94 l 842 1036 l 711 1036 l 711 1042 l 983 1042 l 983 1036 l 847 1036 l 847 319 b 525 -21 847 90 751 -21 b 150 319 264 -21 150 79 l 150 1036 l 25 1036 l 25 1042 "},"Û":{"ha":1003,"x_min":0,"x_max":0,"o":"m 308 1149 l 306 1153 l 472 1340 l 590 1340 l 757 1153 l 754 1149 l 531 1243 m 503 1042 l 503 1036 l 364 1036 l 364 333 b 578 -6 364 150 399 -6 b 842 319 740 -6 842 94 l 842 1036 l 711 1036 l 711 1042 l 983 1042 l 983 1036 l 847 1036 l 847 319 b 525 -21 847 90 751 -21 b 150 319 264 -21 150 79 l 150 1036 l 25 1036 l 25 1042 "},"Ü":{"ha":1003,"x_min":0,"x_max":0,"o":"m 576 1271 b 683 1376 576 1329 624 1376 b 789 1271 742 1376 789 1329 b 683 1164 789 1211 742 1164 b 576 1271 624 1164 576 1211 m 278 1271 b 385 1376 278 1329 325 1376 b 490 1271 443 1376 490 1329 b 385 1164 490 1211 443 1164 b 278 1271 325 1164 278 1211 m 503 1042 l 503 1036 l 364 1036 l 364 333 b 578 -6 364 150 399 -6 b 842 319 740 -6 842 94 l 842 1036 l 711 1036 l 711 1042 l 983 1042 l 983 1036 l 847 1036 l 847 319 b 525 -21 847 90 751 -21 b 150 319 264 -21 150 79 l 150 1036 l 25 1036 l 25 1042 "},"Ý":{"ha":1024,"x_min":0,"x_max":0,"o":"m 361 1185 l 358 1190 l 667 1303 b 771 1229 721 1322 771 1276 b 681 1153 771 1182 728 1147 m 419 6 l 419 500 l 110 1036 l 17 1036 l 17 1042 l 503 1042 l 503 1036 l 360 1036 l 631 539 l 881 1036 l 719 1036 l 719 1042 l 1011 1042 l 1011 1036 l 889 1036 l 636 532 l 636 6 l 775 6 l 775 0 l 294 0 l 294 6 "},"Þ":{"ha":931,"x_min":0,"x_max":0,"o":"m 146 6 l 146 1036 l 21 1036 l 21 1042 l 486 1042 l 486 1036 l 361 1036 l 361 833 l 514 833 b 882 542 765 833 882 722 b 514 250 882 361 765 250 l 361 250 l 361 6 l 486 6 l 486 0 l 21 0 l 21 6 m 361 828 l 361 256 l 465 256 b 646 542 599 256 646 418 b 465 828 646 665 599 828 "},"ß":{"ha":1071,"x_min":0,"x_max":0,"o":"m 146 6 l 146 682 b 581 1056 146 936 354 1056 b 974 807 779 1056 974 957 b 638 563 974 669 864 579 b 1015 243 914 542 1015 408 b 689 -14 1015 76 857 -14 b 469 217 563 -14 469 75 b 590 335 469 294 528 335 b 700 229 646 335 700 300 b 586 125 700 164 640 125 b 478 203 533 125 489 158 b 668 -6 483 75 572 -6 b 792 222 771 -6 792 133 b 560 560 792 353 767 560 l 560 565 b 750 793 711 565 750 704 b 574 1050 750 893 711 1050 b 354 668 401 1050 354 865 l 354 6 l 479 6 l 479 0 l 21 0 l 21 6 "},"à":{"ha":800,"x_min":0,"x_max":0,"o":"m 207 750 b 117 826 160 744 117 779 b 221 900 117 874 167 919 l 529 788 l 526 782 l 207 750 m 454 351 l 454 424 b 322 642 454 531 426 642 b 154 585 246 642 179 610 b 322 504 247 621 322 569 b 206 404 322 442 261 404 b 99 501 143 404 99 444 b 360 650 99 590 219 650 b 649 424 589 650 649 550 l 649 64 b 700 13 649 33 667 13 b 796 89 722 13 768 32 l 801 88 b 617 -14 769 18 697 -14 b 454 108 531 -14 454 14 l 454 182 b 238 -14 438 54 369 -14 b 50 157 128 -14 50 54 b 354 351 50 274 151 351 m 339 43 b 454 251 394 43 454 93 l 454 346 l 403 346 b 261 175 318 346 261 267 b 339 43 261 92 289 43 "},"á":{"ha":800,"x_min":0,"x_max":0,"o":"m 158 782 l 156 788 l 464 900 b 568 826 518 919 568 874 b 478 750 568 779 525 744 m 454 351 l 454 424 b 322 642 454 531 426 642 b 154 585 246 642 179 610 b 322 504 247 621 322 569 b 206 404 322 442 261 404 b 99 501 143 404 99 444 b 360 650 99 590 219 650 b 649 424 589 650 649 550 l 649 64 b 700 13 649 33 667 13 b 796 89 722 13 768 32 l 801 88 b 617 -14 769 18 697 -14 b 454 108 531 -14 454 14 l 454 182 b 238 -14 438 54 369 -14 b 50 157 128 -14 50 54 b 354 351 50 274 151 351 m 339 43 b 454 251 394 43 454 93 l 454 346 l 403 346 b 261 175 318 346 261 267 b 339 43 261 92 289 43 "},"â":{"ha":800,"x_min":0,"x_max":0,"o":"m 165 746 l 163 750 l 329 938 l 447 938 l 614 750 l 611 746 l 388 840 m 454 351 l 454 424 b 322 642 454 531 426 642 b 154 585 246 642 179 610 b 322 504 247 621 322 569 b 206 404 322 442 261 404 b 99 501 143 404 99 444 b 360 650 99 590 219 650 b 649 424 589 650 649 550 l 649 64 b 700 13 649 33 667 13 b 796 89 722 13 768 32 l 801 88 b 617 -14 769 18 697 -14 b 454 108 531 -14 454 14 l 454 182 b 238 -14 438 54 369 -14 b 50 157 128 -14 50 54 b 354 351 50 274 151 351 m 339 43 b 454 251 394 43 454 93 l 454 346 l 403 346 b 261 175 318 346 261 267 b 339 43 261 92 289 43 "},"ã":{"ha":800,"x_min":0,"x_max":0,"o":"m 247 846 b 158 764 196 846 158 815 l 153 764 b 290 968 153 882 201 968 b 542 858 401 968 450 858 b 631 940 600 858 631 889 l 636 940 b 513 736 636 808 615 736 b 247 846 406 736 347 846 m 454 351 l 454 424 b 322 642 454 531 426 642 b 154 585 246 642 179 610 b 322 504 247 621 322 569 b 206 404 322 442 261 404 b 99 501 143 404 99 444 b 360 650 99 590 219 650 b 649 424 589 650 649 550 l 649 64 b 700 13 649 33 667 13 b 796 89 722 13 768 32 l 801 88 b 617 -14 769 18 697 -14 b 454 108 531 -14 454 14 l 454 182 b 238 -14 438 54 369 -14 b 50 157 128 -14 50 54 b 354 351 50 274 151 351 m 339 43 b 454 251 394 43 454 93 l 454 346 l 403 346 b 261 175 318 346 261 267 b 339 43 261 92 289 43 "},"ä":{"ha":800,"x_min":0,"x_max":0,"o":"m 438 843 b 544 949 438 901 485 949 b 650 843 603 949 650 901 b 544 736 650 783 603 736 b 438 843 485 736 438 783 m 139 843 b 246 949 139 901 186 949 b 351 843 304 949 351 901 b 246 736 351 783 304 736 b 139 843 186 736 139 783 m 454 351 l 454 424 b 322 642 454 531 426 642 b 154 585 246 642 179 610 b 322 504 247 621 322 569 b 206 404 322 442 261 404 b 99 501 143 404 99 444 b 360 650 99 590 219 650 b 649 424 589 650 649 550 l 649 64 b 700 13 649 33 667 13 b 796 89 722 13 768 32 l 801 88 b 617 -14 769 18 697 -14 b 454 108 531 -14 454 14 l 454 182 b 238 -14 438 54 369 -14 b 50 157 128 -14 50 54 b 354 351 50 274 151 351 m 339 43 b 454 251 394 43 454 93 l 454 346 l 403 346 b 261 175 318 346 261 267 b 339 43 261 92 289 43 "},"å":{"ha":800,"x_min":0,"x_max":0,"o":"m 256 861 b 394 986 256 932 310 986 b 533 861 479 986 533 932 b 394 736 533 790 479 736 b 256 861 310 736 256 790 m 339 861 b 394 742 339 789 350 742 b 450 861 439 742 450 789 b 394 981 450 933 439 981 b 339 861 350 981 339 933 m 454 351 l 454 424 b 322 642 454 531 426 642 b 154 585 246 642 179 610 b 322 504 247 621 322 569 b 206 404 322 442 261 404 b 99 501 143 404 99 444 b 360 650 99 590 219 650 b 649 424 589 650 649 550 l 649 64 b 700 13 649 33 667 13 b 796 89 722 13 768 32 l 801 88 b 617 -14 769 18 697 -14 b 454 108 531 -14 454 14 l 454 182 b 238 -14 438 54 369 -14 b 50 157 128 -14 50 54 b 354 351 50 274 151 351 m 339 43 b 454 251 394 43 454 93 l 454 346 l 403 346 b 261 175 318 346 261 267 b 339 43 261 92 289 43 "},"æ":{"ha":1157,"x_min":0,"x_max":0,"o":"m 97 501 b 358 650 97 590 218 650 b 583 543 475 650 547 608 b 817 653 636 615 718 653 b 1121 353 1024 653 1121 504 l 694 353 b 694 333 694 347 694 340 b 853 -3 694 175 722 -3 b 1117 199 986 -3 1082 82 l 1122 199 b 819 -14 1086 78 988 -14 b 571 117 711 -14 622 32 b 306 -14 519 32 418 -14 b 49 157 154 -14 49 40 b 353 357 49 274 156 357 l 453 357 l 453 424 b 322 642 453 517 433 642 b 144 578 253 642 178 611 b 321 504 239 621 321 569 b 204 404 321 442 260 404 b 97 501 142 404 97 444 m 914 358 b 817 647 913 486 906 647 b 694 358 726 647 697 508 l 914 358 m 347 -6 b 453 217 406 -6 453 90 l 453 351 l 401 351 b 260 167 317 351 260 267 b 347 -6 260 74 292 -6 "},"ç":{"ha":710,"x_min":0,"x_max":0,"o":"m 382 -253 b 254 -168 382 -179 324 -168 l 369 -14 b 43 319 176 -7 43 104 b 396 653 43 514 165 653 b 658 464 544 653 658 571 b 547 353 658 393 610 353 b 433 461 492 353 433 381 b 539 567 433 531 492 567 b 625 528 582 567 610 549 b 419 644 603 592 514 644 b 272 319 289 644 272 450 b 419 0 272 161 303 0 b 651 199 536 0 615 82 l 658 199 b 388 -14 622 78 542 -14 l 379 -14 l 306 -112 b 536 -225 439 -117 536 -147 b 260 -353 536 -294 469 -353 l 260 -347 b 382 -253 342 -347 382 -306 "},"è":{"ha":722,"x_min":0,"x_max":0,"o":"m 279 764 b 189 840 232 758 189 793 b 293 914 189 888 239 933 l 601 801 l 599 796 l 279 764 m 686 199 b 383 -14 650 78 551 -14 b 43 319 188 -14 43 104 b 381 653 43 535 185 653 b 685 360 588 653 685 511 l 258 360 b 258 333 258 351 258 342 b 418 -3 258 154 288 -3 b 679 199 549 -3 644 85 l 686 199 m 381 647 b 258 365 292 647 263 513 l 478 365 b 381 647 478 486 469 647 "},"é":{"ha":722,"x_min":0,"x_max":0,"o":"m 175 796 l 172 801 l 481 914 b 585 840 535 933 585 888 b 494 764 585 793 542 758 m 686 199 b 383 -14 650 78 551 -14 b 43 319 188 -14 43 104 b 381 653 43 535 185 653 b 685 360 588 653 685 511 l 258 360 b 258 333 258 351 258 342 b 418 -3 258 154 288 -3 b 679 199 549 -3 644 85 l 686 199 m 381 647 b 258 365 292 647 263 513 l 478 365 b 381 647 478 486 469 647 "},"ê":{"ha":722,"x_min":0,"x_max":0,"o":"m 175 711 l 172 715 l 339 903 l 457 903 l 624 715 l 621 711 l 397 806 m 686 199 b 383 -14 650 78 551 -14 b 43 319 188 -14 43 104 b 381 653 43 535 185 653 b 685 360 588 653 685 511 l 258 360 b 258 333 258 351 258 342 b 418 -3 258 154 288 -3 b 679 199 549 -3 644 85 l 686 199 m 381 647 b 258 365 292 647 263 513 l 478 365 b 381 647 478 486 469 647 "},"ë":{"ha":722,"x_min":0,"x_max":0,"o":"m 436 843 b 543 949 436 901 483 949 b 649 843 601 949 649 901 b 543 736 649 783 601 736 b 436 843 483 736 436 783 m 138 843 b 244 949 138 901 185 949 b 350 843 303 949 350 901 b 244 736 350 783 303 736 b 138 843 185 736 138 783 m 686 199 b 383 -14 650 78 551 -14 b 43 319 188 -14 43 104 b 381 653 43 535 185 653 b 685 360 588 653 685 511 l 258 360 b 258 333 258 351 258 342 b 418 -3 258 154 288 -3 b 679 199 549 -3 644 85 l 686 199 m 381 647 b 258 365 292 647 263 513 l 478 365 b 381 647 478 486 469 647 "},"ì":{"ha":444,"x_min":0,"x_max":0,"o":"m 35 750 b -56 826 -12 744 -56 779 b 49 900 -56 874 -6 919 l 357 788 l 354 782 l 35 750 m 125 6 l 125 633 l 28 633 l 28 639 l 319 639 l 319 6 l 417 6 l 417 0 l 28 0 l 28 6 "},"í":{"ha":444,"x_min":0,"x_max":0,"o":"m 0 782 l -3 788 l 306 900 b 410 826 360 919 410 874 b 319 750 410 779 367 744 m 125 6 l 125 633 l 28 633 l 28 639 l 319 639 l 319 6 l 417 6 l 417 0 l 28 0 l 28 6 "},"î":{"ha":444,"x_min":0,"x_max":0,"o":"m -35 746 l -37 750 l 129 938 l 247 938 l 414 750 l 411 746 l 188 840 m 125 6 l 125 633 l 28 633 l 28 639 l 319 639 l 319 6 l 417 6 l 417 0 l 28 0 l 28 6 "},"ï":{"ha":444,"x_min":0,"x_max":0,"o":"m 243 864 b 350 969 243 922 290 969 b 456 864 408 969 456 922 b 350 757 456 804 408 757 b 243 864 290 757 243 804 m -56 864 b 51 969 -56 922 -8 969 b 157 864 110 969 157 922 b 51 757 157 804 110 757 b -56 864 -8 757 -56 804 m 125 6 l 125 633 l 28 633 l 28 639 l 319 639 l 319 6 l 417 6 l 417 0 l 28 0 l 28 6 "},"ð":{"ha":847,"x_min":0,"x_max":0,"o":"m 778 431 b 404 -14 778 139 628 -14 b 42 347 181 -14 42 139 b 367 683 42 583 213 683 b 550 479 489 683 536 601 b 431 869 546 610 503 757 l 181 869 l 181 875 l 426 875 b 146 1053 357 979 261 1053 l 146 1056 b 596 875 325 1056 482 988 l 799 875 l 799 869 l 601 869 b 778 431 711 757 778 603 m 271 347 b 400 -8 271 154 290 -8 b 549 389 510 -8 549 168 b 406 667 549 571 499 667 b 271 347 317 667 271 568 "},"ñ":{"ha":842,"x_min":0,"x_max":0,"o":"m 288 846 b 199 764 236 846 199 815 l 193 764 b 331 968 193 882 242 968 b 582 858 442 968 490 858 b 671 940 640 858 671 889 l 676 940 b 553 736 676 808 656 736 b 288 846 446 736 388 846 m 114 6 l 114 633 l 22 633 l 22 639 l 308 639 l 308 410 b 533 653 324 529 374 653 b 731 443 689 653 731 564 l 731 6 l 822 6 l 822 0 l 467 0 l 467 6 l 536 6 l 536 440 b 467 613 536 557 525 613 b 308 310 336 613 308 438 l 308 6 l 378 6 l 378 0 l 22 0 l 22 6 "},"ò":{"ha":761,"x_min":0,"x_max":0,"o":"m 275 758 b 185 835 228 753 185 788 b 289 908 185 882 235 928 l 597 796 l 594 790 l 275 758 m 43 319 b 382 653 43 500 172 653 b 721 319 592 653 721 500 b 382 -14 721 139 592 -14 b 43 319 172 -14 43 139 m 251 319 b 382 -8 251 154 279 -8 b 513 319 485 -8 513 154 b 382 647 513 485 485 647 b 251 319 279 647 251 485 "},"ó":{"ha":761,"x_min":0,"x_max":0,"o":"m 197 790 l 194 796 l 503 908 b 607 835 557 928 607 882 b 517 758 607 788 564 753 m 43 319 b 382 653 43 500 172 653 b 721 319 592 653 721 500 b 382 -14 721 139 592 -14 b 43 319 172 -14 43 139 m 251 319 b 382 -8 251 154 279 -8 b 513 319 485 -8 513 154 b 382 647 513 485 485 647 b 251 319 279 647 251 485 "},"ô":{"ha":761,"x_min":0,"x_max":0,"o":"m 165 746 l 163 750 l 329 938 l 447 938 l 614 750 l 611 746 l 388 840 m 43 319 b 382 653 43 500 172 653 b 721 319 592 653 721 500 b 382 -14 721 139 592 -14 b 43 319 172 -14 43 139 m 251 319 b 382 -8 251 154 279 -8 b 513 319 485 -8 513 154 b 382 647 513 485 485 647 b 251 319 279 647 251 485 "},"õ":{"ha":761,"x_min":0,"x_max":0,"o":"m 242 846 b 153 764 190 846 153 815 l 147 764 b 285 968 147 882 196 968 b 536 858 396 968 444 858 b 625 940 594 858 625 889 l 631 940 b 507 736 631 808 610 736 b 242 846 400 736 342 846 m 43 319 b 382 653 43 500 172 653 b 721 319 592 653 721 500 b 382 -14 721 139 592 -14 b 43 319 172 -14 43 139 m 251 319 b 382 -8 251 154 279 -8 b 513 319 485 -8 513 154 b 382 647 513 485 485 647 b 251 319 279 647 251 485 "},"ö":{"ha":761,"x_min":0,"x_max":0,"o":"m 438 843 b 544 949 438 901 485 949 b 650 843 603 949 650 901 b 544 736 650 783 603 736 b 438 843 485 736 438 783 m 139 843 b 246 949 139 901 186 949 b 351 843 304 949 351 901 b 246 736 351 783 304 736 b 139 843 186 736 139 783 m 43 319 b 382 653 43 500 172 653 b 721 319 592 653 721 500 b 382 -14 721 139 592 -14 b 43 319 172 -14 43 139 m 251 319 b 382 -8 251 154 279 -8 b 513 319 485 -8 513 154 b 382 647 513 485 485 647 b 251 319 279 647 251 485 "},"÷":{"ha":847,"x_min":0,"x_max":0,"o":"m 299 806 b 424 931 299 875 354 931 b 549 806 493 931 549 875 b 424 681 549 736 493 681 b 299 806 354 681 299 736 m 785 551 l 785 546 l 63 546 l 63 551 m 299 271 b 424 396 299 340 354 396 b 549 271 493 396 549 340 b 424 146 549 201 493 146 b 299 271 354 146 299 201 "},"ø":{"ha":761,"x_min":0,"x_max":0,"o":"m 43 319 b 382 653 43 500 172 653 b 556 611 449 653 507 638 l 675 804 l 681 804 l 560 608 b 721 319 663 550 721 442 b 382 -14 721 139 592 -14 b 201 32 313 -14 251 3 l 75 -171 l 69 -171 l 197 35 b 43 319 99 93 43 200 m 251 319 b 265 144 251 258 256 197 l 494 514 b 382 647 476 592 442 647 b 251 319 279 647 251 485 m 513 319 b 496 507 513 386 508 451 l 267 138 b 382 -8 285 53 319 -8 b 513 319 485 -8 513 154 "},"ù":{"ha":842,"x_min":0,"x_max":0,"o":"m 300 764 b 210 840 253 758 210 793 b 314 914 210 888 260 933 l 622 801 l 619 796 l 300 764 m 308 199 b 378 26 308 82 319 26 b 536 329 508 26 536 201 l 536 633 l 447 633 l 447 639 l 731 639 l 731 6 l 822 6 l 822 0 l 536 0 l 536 229 b 311 -14 521 110 471 -14 b 114 196 156 -14 114 75 l 114 633 l 22 633 l 22 639 l 308 639 "},"ú":{"ha":842,"x_min":0,"x_max":0,"o":"m 210 790 l 207 796 l 515 908 b 619 835 569 928 619 882 b 529 758 619 788 576 753 m 308 199 b 378 26 308 82 319 26 b 536 329 508 26 536 201 l 536 633 l 447 633 l 447 639 l 731 639 l 731 6 l 822 6 l 822 0 l 536 0 l 536 229 b 311 -14 521 110 471 -14 b 114 196 156 -14 114 75 l 114 633 l 22 633 l 22 639 l 308 639 "},"û":{"ha":842,"x_min":0,"x_max":0,"o":"m 164 746 l 161 750 l 328 938 l 446 938 l 613 750 l 610 746 l 386 840 m 308 199 b 378 26 308 82 319 26 b 536 329 508 26 536 201 l 536 633 l 447 633 l 447 639 l 731 639 l 731 6 l 822 6 l 822 0 l 536 0 l 536 229 b 311 -14 521 110 471 -14 b 114 196 156 -14 114 75 l 114 633 l 22 633 l 22 639 l 308 639 "},"ü":{"ha":842,"x_min":0,"x_max":0,"o":"m 496 868 b 603 974 496 926 543 974 b 708 868 661 974 708 926 b 603 761 708 808 661 761 b 496 868 543 761 496 808 m 197 868 b 304 974 197 926 244 974 b 410 868 363 974 410 926 b 304 761 410 808 363 761 b 197 868 244 761 197 808 m 308 199 b 378 26 308 82 319 26 b 536 329 508 26 536 201 l 536 633 l 447 633 l 447 639 l 731 639 l 731 6 l 822 6 l 822 0 l 536 0 l 536 229 b 311 -14 521 110 471 -14 b 114 196 156 -14 114 75 l 114 633 l 22 633 l 22 639 l 308 639 "},"ý":{"ha":811,"x_min":0,"x_max":0,"o":"m 243 796 l 240 801 l 549 914 b 653 840 603 933 653 888 b 563 764 653 793 610 758 m 419 -32 l 75 633 l -10 633 l -10 639 l 439 639 l 439 633 l 306 633 l 525 200 l 722 633 l 583 633 l 583 639 l 831 639 l 831 633 l 731 633 l 318 -268 b 200 -358 293 -321 260 -358 b 92 -254 144 -358 92 -321 b 203 -144 92 -194 138 -144 b 310 -271 264 -144 315 -196 "},"þ":{"ha":865,"x_min":0,"x_max":0,"o":"m 118 -342 l 118 1036 l 21 1036 l 21 1042 l 313 1042 l 313 411 b 529 651 332 565 407 651 b 824 319 681 651 824 528 b 529 -14 824 111 681 -14 b 313 229 408 -14 333 74 l 313 -342 l 410 -342 l 410 -347 l 21 -347 l 21 -342 m 313 319 b 486 6 313 107 400 6 b 601 319 569 6 601 121 b 486 632 601 518 569 632 b 313 319 400 632 313 532 "},"ÿ":{"ha":811,"x_min":0,"x_max":0,"o":"m 507 910 b 614 1015 507 968 554 1015 b 719 910 672 1015 719 968 b 614 803 719 850 672 803 b 507 910 554 803 507 850 m 208 910 b 315 1015 208 968 256 1015 b 421 910 374 1015 421 968 b 315 803 421 850 374 803 b 208 910 256 803 208 850 m 419 -32 l 75 633 l -10 633 l -10 639 l 439 639 l 439 633 l 306 633 l 525 200 l 722 633 l 583 633 l 583 639 l 831 639 l 831 633 l 731 633 l 318 -268 b 200 -358 293 -321 260 -358 b 92 -254 144 -358 92 -321 b 203 -144 92 -194 138 -144 b 310 -271 264 -144 315 -196 "},"ı":{"ha":444,"x_min":0,"x_max":0,"o":"m 125 6 l 125 633 l 28 633 l 28 639 l 319 639 l 319 6 l 417 6 l 417 0 l 28 0 l 28 6 "},"‘":{"ha":382,"x_min":0,"x_max":0,"o":"m 326 757 b 192 633 326 690 265 633 b 53 819 117 633 53 697 b 329 1078 53 958 163 1078 l 329 1072 b 68 753 167 1072 29 947 b 201 881 76 817 126 881 b 326 757 281 881 326 824 "},"’":{"ha":382,"x_min":0,"x_max":0,"o":"m 56 946 b 190 1069 56 1013 117 1069 b 329 883 265 1069 329 1006 b 53 625 329 744 219 625 l 53 631 b 314 950 215 631 353 756 b 181 822 306 886 256 822 b 56 946 101 822 56 879 "},"Ō":{"ha":1058,"x_min":0,"x_max":0,"o":"m 728 1150 l 728 1144 l 336 1144 l 336 1150 m 531 -14 b 58 521 235 -14 58 218 b 531 1056 58 824 249 1056 b 1003 521 813 1056 1003 824 b 531 -14 1003 218 826 -14 m 531 1050 b 303 521 351 1050 303 808 b 531 -8 303 233 338 -8 b 761 521 724 -8 761 233 b 531 1050 761 808 710 1050 "},"ď":{"ha":976,"x_min":0,"x_max":0,"o":"m 819 1001 b 954 1125 819 1068 881 1125 b 1093 939 1029 1125 1093 1061 b 817 681 1093 800 983 681 l 817 686 b 1078 1006 979 686 1117 811 b 944 878 1069 942 1019 878 b 819 1001 865 878 819 935 m 839 0 l 554 0 l 554 239 b 338 -14 536 78 463 -14 b 43 319 186 -14 43 111 b 338 651 43 528 186 651 b 554 400 461 651 536 561 l 554 1036 l 463 1036 l 463 1042 l 749 1042 l 749 6 l 839 6 m 554 319 b 381 632 554 532 467 632 b 265 319 299 632 265 519 b 381 7 265 119 299 7 b 554 319 467 7 554 107 "},"ş":{"ha":611,"x_min":0,"x_max":0,"o":"m 53 -14 l 53 201 l 58 201 b 304 -8 93 82 185 0 l 304 -7 l 314 -7 l 313 -8 b 321 -8 315 -8 318 -8 b 475 100 410 -8 475 29 b 67 451 475 253 67 179 b 282 651 67 561 150 651 b 440 593 347 651 400 628 l 522 653 l 528 653 l 528 458 l 522 458 b 283 646 494 546 414 646 b 156 554 207 646 156 610 b 578 204 156 406 578 465 b 326 -14 578 60 454 -14 b 310 -14 321 -14 315 -14 l 231 -118 b 461 -231 364 -122 461 -153 b 185 -358 461 -300 394 -358 l 185 -353 b 307 -258 267 -353 307 -311 b 179 -174 307 -185 249 -174 l 300 -12 b 142 53 238 -7 183 15 l 58 -14 "},"Ĩ":{"ha":579,"x_min":0,"x_max":0,"o":"m 153 1249 b 64 1167 101 1249 64 1218 l 58 1167 b 196 1371 58 1285 107 1371 b 447 1261 307 1371 356 1261 b 536 1343 506 1261 536 1292 l 542 1343 b 418 1139 542 1211 521 1139 b 153 1249 311 1139 253 1249 m 178 6 l 178 1036 l 25 1036 l 25 1042 l 558 1042 l 558 1036 l 392 1036 l 392 6 l 558 6 l 558 0 l 25 0 l 25 6 "},"Ė":{"ha":871,"x_min":0,"x_max":0,"o":"m 326 1244 b 433 1351 326 1304 374 1351 b 539 1244 492 1351 539 1304 b 433 1139 539 1186 492 1139 b 326 1244 374 1139 326 1186 m 594 365 b 414 536 574 458 493 536 l 364 536 l 364 6 l 511 6 b 825 313 701 6 804 136 l 831 313 l 831 0 l 25 0 l 25 6 l 150 6 l 150 1036 l 25 1036 l 25 1042 l 817 1042 l 817 757 l 811 757 b 525 1036 790 906 688 1036 l 364 1036 l 364 542 l 414 542 b 594 706 493 542 574 613 l 600 706 l 600 365 l 594 365 "},"Ŝ":{"ha":829,"x_min":0,"x_max":0,"o":"m 199 1114 l 196 1118 l 363 1306 l 481 1306 l 647 1118 l 644 1114 l 421 1208 m 58 -14 l 58 313 l 65 313 b 419 -14 118 149 217 -14 b 635 194 553 -14 635 72 b 72 778 635 458 72 375 b 381 1056 72 951 219 1056 b 590 975 465 1056 535 1028 l 714 1056 l 719 1056 l 719 743 l 713 743 b 389 1047 657 935 547 1047 b 219 881 276 1047 219 976 b 775 299 219 644 775 701 b 428 -21 775 104 624 -21 b 192 74 325 -21 250 17 l 64 -14 "},"Ĥ":{"ha":1100,"x_min":0,"x_max":0,"o":"m 336 1149 l 333 1153 l 500 1340 l 618 1340 l 785 1153 l 782 1149 l 558 1243 m 150 6 l 150 1036 l 25 1036 l 25 1042 l 489 1042 l 489 1036 l 364 1036 l 364 517 l 739 517 l 739 1036 l 614 1036 l 614 1042 l 1081 1042 l 1081 1036 l 956 1036 l 956 6 l 1081 6 l 1081 0 l 614 0 l 614 6 l 739 6 l 739 511 l 364 511 l 364 6 l 489 6 l 489 0 l 25 0 l 25 6 "},"į":{"ha":422,"x_min":0,"x_max":0,"o":"m 86 938 b 203 1056 86 1004 136 1056 b 322 938 269 1056 322 1004 b 203 819 322 871 269 819 b 86 938 136 819 86 871 m 119 6 l 119 633 l 29 633 l 29 639 l 314 639 l 314 6 l 406 6 l 406 0 l 218 0 b 171 -162 193 -25 171 -83 b 243 -285 171 -240 203 -285 b 326 -214 282 -285 304 -254 l 329 -217 b 157 -318 308 -256 276 -318 b -15 -199 65 -318 -15 -282 b 185 0 -15 -101 88 -36 l 29 0 l 29 6 "},"Ș":{"ha":829,"x_min":0,"x_max":0,"o":"m 58 -14 l 58 313 l 65 313 b 419 -14 118 149 217 -14 b 635 194 553 -14 635 72 b 72 778 635 458 72 375 b 381 1056 72 951 219 1056 b 590 975 465 1056 535 1028 l 714 1056 l 719 1056 l 719 743 l 713 743 b 389 1047 657 935 547 1047 b 219 881 276 1047 219 976 b 775 299 219 644 775 701 b 428 -21 775 104 624 -21 b 192 74 325 -21 250 17 l 64 -14 m 300 -228 b 435 -104 300 -161 361 -104 b 574 -290 510 -104 574 -168 b 297 -549 574 -429 464 -549 l 297 -543 b 558 -224 460 -543 597 -418 b 425 -351 550 -287 500 -351 b 300 -228 346 -351 300 -294 "},"Ğ":{"ha":1051,"x_min":0,"x_max":0,"o":"m 419 1360 b 581 1271 419 1296 506 1271 b 742 1360 656 1271 742 1296 l 747 1360 b 581 1139 747 1226 699 1139 b 414 1360 463 1139 414 1226 l 419 1360 m 1039 399 l 1039 393 l 969 393 l 969 215 b 553 -14 879 121 779 -14 b 58 521 243 -14 58 197 b 572 1056 58 844 290 1056 b 790 975 653 1056 729 1025 l 928 1042 l 933 1042 l 933 736 l 928 736 b 592 1044 900 885 758 1044 b 303 521 385 1044 303 774 b 553 -7 303 268 353 -7 b 739 174 669 -7 718 115 l 739 393 l 594 393 l 594 399 "},"ğ":{"ha":850,"x_min":0,"x_max":0,"o":"m 242 957 b 403 868 242 893 328 868 b 564 957 478 868 564 893 l 569 957 b 403 736 569 824 521 736 b 236 957 285 736 236 824 l 242 957 m 67 90 b 289 229 67 179 181 219 b 57 438 171 243 57 304 b 340 653 57 590 207 653 b 563 579 421 653 507 631 b 704 646 603 629 657 646 b 839 531 796 646 839 583 b 750 429 839 454 792 429 b 664 517 708 429 664 457 b 749 599 664 563 699 599 b 826 551 786 599 819 576 b 704 640 818 594 781 640 b 568 574 658 640 606 622 b 624 438 601 540 624 496 b 340 226 624 285 474 226 b 319 226 333 226 326 226 b 189 160 261 222 189 203 b 331 117 189 118 254 117 b 450 118 379 117 411 118 b 682 -114 554 118 682 75 b 356 -361 682 -282 543 -361 b 22 -186 192 -361 22 -311 b 218 -40 22 -76 149 -46 b 67 90 133 -28 67 10 m 258 438 b 340 232 258 321 265 232 b 422 438 394 232 422 321 b 340 647 422 554 394 647 b 258 438 286 647 258 554 m 189 -154 b 368 -354 189 -262 249 -354 b 643 -172 497 -354 643 -300 b 453 -47 643 -85 543 -47 l 308 -47 b 239 -43 285 -47 261 -46 b 189 -154 196 -71 189 -125 "},"ź":{"ha":653,"x_min":0,"x_max":0,"o":"m 164 754 l 161 760 l 469 872 b 574 799 524 892 574 846 b 483 722 574 751 531 717 m 281 633 b 60 400 150 633 81 540 l 54 400 l 54 639 l 611 639 l 611 633 l 235 6 l 375 6 b 626 256 538 6 606 83 l 633 256 l 633 0 l 15 0 l 15 6 l 390 633 l 281 633 "},"ș":{"ha":611,"x_min":0,"x_max":0,"o":"m 53 -14 l 53 201 l 58 201 b 321 -8 94 76 194 -8 b 475 100 410 -8 475 29 b 67 451 475 253 67 179 b 282 651 67 561 150 651 b 440 593 347 651 400 628 l 522 653 l 528 653 l 528 458 l 522 458 b 283 646 494 546 414 646 b 156 554 207 646 156 610 b 578 204 156 406 578 465 b 326 -14 578 60 454 -14 b 142 53 253 -14 190 11 l 58 -14 m 185 -186 b 319 -62 185 -119 246 -62 b 458 -249 394 -62 458 -126 b 182 -507 458 -387 349 -507 l 182 -501 b 443 -182 344 -501 482 -376 b 310 -310 435 -246 385 -310 b 185 -186 231 -310 185 -253 "},"Ĕ":{"ha":871,"x_min":0,"x_max":0,"o":"m 267 1360 b 428 1271 267 1296 353 1271 b 589 1360 503 1271 589 1296 l 594 1360 b 428 1139 594 1226 546 1139 b 261 1360 310 1139 261 1226 l 267 1360 m 594 365 b 414 536 574 458 493 536 l 364 536 l 364 6 l 511 6 b 825 313 701 6 804 136 l 831 313 l 831 0 l 25 0 l 25 6 l 150 6 l 150 1036 l 25 1036 l 25 1042 l 817 1042 l 817 757 l 811 757 b 525 1036 790 906 688 1036 l 364 1036 l 364 542 l 414 542 b 594 706 493 542 574 613 l 600 706 l 600 365 l 594 365 "},"Ŵ":{"ha":1531,"x_min":0,"x_max":0,"o":"m 551 1149 l 549 1153 l 715 1340 l 833 1340 l 1000 1153 l 997 1149 l 774 1243 m 1054 1036 l 924 685 l 1083 239 l 1382 1036 l 1239 1036 l 1239 1042 l 1517 1042 l 1517 1036 l 1390 1036 l 997 -14 l 956 -14 l 768 503 l 572 -14 l 511 -14 l 129 1036 l 17 1036 l 17 1042 l 1178 1042 l 1178 1036 m 764 513 l 574 1036 l 374 1036 l 660 239 m 921 694 l 1049 1036 l 797 1036 "},"Ċ":{"ha":975,"x_min":0,"x_max":0,"o":"m 463 1269 b 569 1376 463 1329 510 1376 b 675 1269 628 1376 675 1329 b 569 1164 675 1211 628 1164 b 463 1269 510 1164 463 1211 m 919 0 l 914 0 l 800 79 b 558 -14 739 21 658 -14 b 58 521 249 -14 58 211 b 558 1056 58 831 249 1056 b 776 969 646 1056 718 1024 l 900 1042 l 906 1042 l 906 736 l 900 736 b 572 1044 851 914 728 1044 b 303 521 365 1044 303 774 b 572 -3 303 268 365 -3 b 914 306 761 -3 872 138 l 919 306 "},"ŵ":{"ha":1132,"x_min":0,"x_max":0,"o":"m 389 746 l 386 750 l 553 938 l 671 938 l 838 750 l 835 746 l 611 840 m 617 653 l 714 653 l 849 208 l 990 633 l 846 633 l 846 639 l 1131 639 l 1131 633 l 999 633 l 781 -14 l 725 -14 l 547 467 l 350 -14 l 294 -14 l 82 633 l -3 633 l -3 639 l 411 639 l 411 633 l 290 633 l 421 179 "},"č":{"ha":710,"x_min":0,"x_max":0,"o":"m 625 926 l 629 924 l 463 736 l 344 736 l 178 924 l 181 926 l 403 833 m 625 528 b 419 644 603 592 514 644 b 272 319 289 644 272 450 b 419 0 272 161 303 0 b 651 199 536 0 615 82 l 658 199 b 388 -14 622 78 542 -14 b 43 319 185 -14 43 97 b 396 653 43 514 165 653 b 658 464 544 653 658 571 b 547 353 658 393 610 353 b 433 461 492 353 433 381 b 539 567 433 531 492 567 b 625 528 582 567 610 549 "},"ō":{"ha":761,"x_min":0,"x_max":0,"o":"m 582 747 l 582 742 l 190 742 l 190 747 m 43 319 b 382 653 43 500 172 653 b 721 319 592 653 721 500 b 382 -14 721 139 592 -14 b 43 319 172 -14 43 139 m 251 319 b 382 -8 251 154 279 -8 b 513 319 485 -8 513 154 b 382 647 513 485 485 647 b 251 319 279 647 251 485 "},"ﬁ":{"ha":871,"x_min":0,"x_max":0,"o":"m 142 6 l 142 633 l 17 633 l 17 639 l 142 639 l 142 711 b 528 1056 142 914 285 1056 b 753 890 675 1056 753 976 b 647 776 753 819 710 776 b 533 879 592 776 533 813 b 644 986 533 946 586 986 b 739 919 692 986 728 960 b 528 1050 726 993 651 1050 b 331 750 375 1050 331 926 l 331 639 l 750 639 l 750 6 l 847 6 l 847 0 l 17 0 l 17 6 m 331 633 l 331 6 l 556 6 l 556 633 "},"‑":{"ha":399,"x_min":0,"x_max":0,"o":"m 315 385 l 315 379 l 83 379 l 83 385 "},"ŷ":{"ha":811,"x_min":0,"x_max":0,"o":"m 207 746 l 204 750 l 371 938 l 489 938 l 656 750 l 653 746 l 429 840 m 419 -32 l 75 633 l -10 633 l -10 639 l 439 639 l 439 633 l 306 633 l 525 200 l 722 633 l 583 633 l 583 639 l 831 639 l 831 633 l 731 633 l 318 -268 b 200 -358 293 -321 260 -358 b 92 -254 144 -358 92 -321 b 203 -144 92 -194 138 -144 b 310 -271 264 -144 315 -196 "},"Ē":{"ha":871,"x_min":0,"x_max":0,"o":"m 621 1156 l 621 1150 l 229 1150 l 229 1156 m 594 365 b 414 536 574 458 493 536 l 364 536 l 364 6 l 511 6 b 825 313 701 6 804 136 l 831 313 l 831 0 l 25 0 l 25 6 l 150 6 l 150 1036 l 25 1036 l 25 1042 l 817 1042 l 817 757 l 811 757 b 525 1036 790 906 688 1036 l 364 1036 l 364 542 l 414 542 b 594 706 493 542 574 613 l 600 706 l 600 365 l 594 365 "},"—":{"ha":735,"x_min":0,"x_max":0,"o":"m 651 385 l 651 379 l 82 379 l 82 385 "},"ŀ":{"ha":706,"x_min":0,"x_max":0,"o":"m 142 6 l 142 1036 l 22 1036 l 22 1042 l 336 1042 l 336 6 l 456 6 l 456 0 l 22 0 l 22 6 m 417 597 b 542 722 417 667 472 722 b 667 597 611 722 667 667 b 542 472 667 528 611 472 b 417 597 472 472 417 528 "},"‾":{"ha":500,"x_min":0,"x_max":0,"o":"m 507 1100 l 507 1094 l -7 1094 l -7 1100 "},"ė":{"ha":722,"x_min":0,"x_max":0,"o":"m 288 842 b 394 949 288 901 335 949 b 500 842 453 949 500 901 b 394 736 500 783 453 736 b 288 842 335 736 288 783 m 686 199 b 383 -14 650 78 551 -14 b 43 319 188 -14 43 104 b 381 653 43 535 185 653 b 685 360 588 653 685 511 l 258 360 b 258 333 258 351 258 342 b 418 -3 258 154 288 -3 b 679 199 549 -3 644 85 l 686 199 m 381 647 b 258 365 292 647 263 513 l 478 365 b 381 647 478 486 469 647 "},"":{"ha":901,"x_min":0,"x_max":0,"o":"m 461 678 l 461 1050 l 422 1050 l 422 1051 l 540 1051 l 639 783 l 733 1051 l 847 1051 l 847 1050 l 813 1050 l 813 678 l 847 678 l 847 676 l 694 676 l 694 678 l 735 678 l 735 1049 l 603 671 l 601 671 l 463 1049 l 463 678 l 501 678 l 501 676 l 425 676 l 425 678 m 179 678 l 179 1050 l 147 1050 b 60 932 94 1050 67 994 l 57 932 l 57 1051 l 379 1051 l 379 932 l 378 932 b 290 1050 369 994 343 1050 l 257 1050 l 257 678 l 313 678 l 313 676 l 125 676 l 125 678 "},"¹":{"ha":736,"x_min":0,"x_max":0,"o":"m 299 636 l 299 1256 l 204 1256 l 204 1258 l 428 1258 l 428 636 l 519 636 l 519 633 l 190 633 l 190 636 "},"œ":{"ha":1240,"x_min":0,"x_max":0,"o":"m 43 319 b 382 653 43 500 172 653 b 639 544 492 653 579 611 b 901 653 699 615 792 653 b 1206 360 1108 653 1206 511 l 779 360 b 779 333 779 351 779 342 b 939 -3 779 154 808 -3 b 1200 199 1069 -3 1165 85 l 1207 199 b 904 -14 1171 78 1072 -14 b 639 94 794 -14 700 24 b 382 -14 581 28 492 -14 b 43 319 172 -14 43 139 m 251 319 b 382 -8 251 154 279 -8 b 513 319 485 -8 513 154 b 382 647 513 485 485 647 b 251 319 279 647 251 485 m 901 647 b 779 365 813 647 783 513 l 999 365 b 901 647 999 486 990 647 "},"Ł":{"ha":854,"x_min":0,"x_max":0,"o":"m 150 572 l 150 1036 l 25 1036 l 25 1042 l 489 1042 l 489 1036 l 364 1036 l 364 692 l 569 806 l 569 799 l 364 685 l 364 6 l 507 6 b 821 313 711 6 800 136 l 826 313 l 826 0 l 25 0 l 25 6 l 150 6 l 150 565 l 21 493 l 21 500 "},"ġ":{"ha":850,"x_min":0,"x_max":0,"o":"m 306 867 b 413 974 306 926 353 974 b 518 867 471 974 518 926 b 413 761 518 808 471 761 b 306 867 353 761 306 808 m 67 90 b 289 229 67 179 181 219 b 57 438 171 243 57 304 b 340 653 57 590 207 653 b 563 579 421 653 507 631 b 704 646 603 629 657 646 b 839 531 796 646 839 583 b 750 429 839 454 792 429 b 664 517 708 429 664 457 b 749 599 664 563 699 599 b 826 551 786 599 819 576 b 704 640 818 594 781 640 b 568 574 658 640 606 622 b 624 438 601 540 624 496 b 340 226 624 285 474 226 b 319 226 333 226 326 226 b 189 160 261 222 189 203 b 331 117 189 118 254 117 b 450 118 379 117 411 118 b 682 -114 554 118 682 75 b 356 -361 682 -282 543 -361 b 22 -186 192 -361 22 -311 b 218 -40 22 -76 149 -46 b 67 90 133 -28 67 10 m 258 438 b 340 232 258 321 265 232 b 422 438 394 232 422 321 b 340 647 422 554 394 647 b 258 438 286 647 258 554 m 189 -154 b 368 -354 189 -262 249 -354 b 643 -172 497 -354 643 -300 b 453 -47 643 -85 543 -47 l 308 -47 b 239 -43 285 -47 261 -46 b 189 -154 196 -71 189 -125 "},"ž":{"ha":653,"x_min":0,"x_max":0,"o":"m 561 926 l 565 924 l 399 736 l 281 736 l 114 924 l 117 926 l 339 833 m 281 633 b 60 400 150 633 81 540 l 54 400 l 54 639 l 611 639 l 611 633 l 235 6 l 375 6 b 626 256 538 6 606 83 l 633 256 l 633 0 l 15 0 l 15 6 l 390 633 l 281 633 "},"Ń":{"ha":1039,"x_min":0,"x_max":0,"o":"m 403 1157 l 400 1163 l 708 1275 b 813 1201 763 1294 813 1249 b 722 1125 813 1154 769 1119 m 164 6 l 164 1036 l 25 1036 l 25 1042 l 419 1042 l 867 354 l 867 1036 l 708 1036 l 708 1042 l 1019 1042 l 1019 1036 l 872 1036 l 872 -14 l 864 -14 l 169 1033 l 169 6 l 331 6 l 331 0 l 25 0 l 25 6 "},"Ť":{"ha":940,"x_min":0,"x_max":0,"o":"m 700 1329 l 704 1326 l 538 1139 l 419 1139 l 253 1326 l 256 1329 l 478 1236 m 364 6 l 364 1036 l 275 1036 b 31 708 126 1036 51 885 l 25 708 l 25 1042 l 919 1042 l 919 708 l 914 708 b 669 1036 893 885 818 1036 l 581 1036 l 581 6 l 733 6 l 733 0 l 211 0 l 211 6 "},"ŝ":{"ha":611,"x_min":0,"x_max":0,"o":"m 118 711 l 115 715 l 282 903 l 400 903 l 567 715 l 564 711 l 340 806 m 53 -14 l 53 201 l 58 201 b 321 -8 94 76 194 -8 b 475 100 410 -8 475 29 b 67 451 475 253 67 179 b 282 651 67 561 150 651 b 440 593 347 651 400 628 l 522 653 l 528 653 l 528 458 l 522 458 b 283 646 494 546 414 646 b 156 554 207 646 156 610 b 578 204 156 406 578 465 b 326 -14 578 60 454 -14 b 142 53 253 -14 190 11 l 58 -14 "},"ů":{"ha":842,"x_min":0,"x_max":0,"o":"m 247 861 b 386 986 247 932 301 986 b 525 861 471 986 525 932 b 386 736 525 790 471 736 b 247 861 301 736 247 790 m 331 861 b 386 742 331 789 342 742 b 442 861 431 742 442 789 b 386 981 442 933 431 981 b 331 861 342 981 331 933 m 308 199 b 378 26 308 82 319 26 b 536 329 508 26 536 201 l 536 633 l 447 633 l 447 639 l 731 639 l 731 6 l 822 6 l 822 0 l 536 0 l 536 229 b 311 -14 521 110 471 -14 b 114 196 156 -14 114 75 l 114 633 l 22 633 l 22 639 l 308 639 "},"Ķ":{"ha":1065,"x_min":0,"x_max":0,"o":"m 150 6 l 150 1036 l 25 1036 l 25 1042 l 503 1042 l 503 1036 l 364 1036 l 364 493 l 828 1036 l 664 1036 l 664 1042 l 997 1042 l 997 1036 l 839 1036 l 543 689 l 947 6 l 1058 6 l 1058 0 l 558 0 l 558 6 l 697 6 l 403 525 l 364 481 l 364 6 l 489 6 l 489 0 l 25 0 l 25 6 m 414 -207 b 549 -83 414 -140 475 -83 b 688 -269 624 -83 688 -147 b 411 -528 688 -408 578 -528 l 411 -522 b 672 -203 574 -522 711 -397 b 539 -331 664 -267 614 -331 b 414 -207 460 -331 414 -274 "},"ś":{"ha":611,"x_min":0,"x_max":0,"o":"m 111 796 l 108 801 l 417 914 b 521 840 471 933 521 888 b 431 764 521 793 478 758 m 53 -14 l 53 201 l 58 201 b 321 -8 94 76 194 -8 b 475 100 410 -8 475 29 b 67 451 475 253 67 179 b 282 651 67 561 150 651 b 440 593 347 651 400 628 l 522 653 l 528 653 l 528 458 l 522 458 b 283 646 494 546 414 646 b 156 554 207 646 156 610 b 578 204 156 406 578 465 b 326 -14 578 60 454 -14 b 142 53 253 -14 190 11 l 58 -14 "},"€":{"ha":1007,"x_min":0,"x_max":0,"o":"m 163 406 b 153 521 156 442 153 481 b 158 608 153 550 154 579 l 42 608 l 42 614 l 160 614 b 638 1056 194 863 369 1056 b 944 842 828 1056 944 935 b 831 721 944 764 893 721 b 717 833 775 721 717 757 b 831 944 717 903 769 944 b 921 900 875 944 910 917 b 665 1047 896 963 799 1047 b 406 614 489 1047 419 847 l 653 614 l 653 608 l 406 608 b 403 521 404 579 403 550 b 407 406 403 481 404 442 l 653 406 l 653 400 l 407 400 b 639 0 426 165 503 0 b 922 247 778 0 888 117 l 928 247 b 601 -14 892 113 783 -14 b 163 400 389 -14 207 149 l 42 400 l 42 406 "},"–":{"ha":558,"x_min":0,"x_max":0,"o":"m 475 385 l 475 379 l 83 379 l 83 385 "},"ĕ":{"ha":722,"x_min":0,"x_max":0,"o":"m 225 957 b 386 868 225 893 311 868 b 547 957 461 868 547 893 l 553 957 b 386 736 553 824 504 736 b 219 957 268 736 219 824 l 225 957 m 686 199 b 383 -14 650 78 551 -14 b 43 319 188 -14 43 104 b 381 653 43 535 185 653 b 685 360 588 653 685 511 l 258 360 b 258 333 258 351 258 342 b 418 -3 258 154 288 -3 b 679 199 549 -3 644 85 l 686 199 m 381 647 b 258 365 292 647 263 513 l 478 365 b 381 647 478 486 469 647 "},"ĝ":{"ha":850,"x_min":0,"x_max":0,"o":"m 186 746 l 183 750 l 350 938 l 468 938 l 635 750 l 632 746 l 408 840 m 67 90 b 289 229 67 179 181 219 b 57 438 171 243 57 304 b 340 653 57 590 207 653 b 563 579 421 653 507 631 b 704 646 603 629 657 646 b 839 531 796 646 839 583 b 750 429 839 454 792 429 b 664 517 708 429 664 457 b 749 599 664 563 699 599 b 826 551 786 599 819 576 b 704 640 818 594 781 640 b 568 574 658 640 606 622 b 624 438 601 540 624 496 b 340 226 624 285 474 226 b 319 226 333 226 326 226 b 189 160 261 222 189 203 b 331 117 189 118 254 117 b 450 118 379 117 411 118 b 682 -114 554 118 682 75 b 356 -361 682 -282 543 -361 b 22 -186 192 -361 22 -311 b 218 -40 22 -76 149 -46 b 67 90 133 -28 67 10 m 258 438 b 340 232 258 321 265 232 b 422 438 394 232 422 321 b 340 647 422 554 394 647 b 258 438 286 647 258 554 m 189 -154 b 368 -354 189 -262 249 -354 b 643 -172 497 -354 643 -300 b 453 -47 643 -85 543 -47 l 308 -47 b 239 -43 285 -47 261 -46 b 189 -154 196 -71 189 -125 "},"Ŕ":{"ha":1031,"x_min":0,"x_max":0,"o":"m 289 1185 l 286 1190 l 594 1303 b 699 1229 649 1322 699 1276 b 608 1153 699 1182 656 1147 m 164 6 l 164 1036 l 25 1036 l 25 1042 l 511 1042 b 900 785 742 1042 900 965 b 589 535 900 624 786 550 b 939 4 1040 532 768 4 b 1014 22 968 4 994 14 l 1017 17 b 850 -11 994 4 933 -11 b 475 532 471 -11 817 532 l 378 532 l 378 6 l 517 6 l 517 0 l 25 0 l 25 6 m 378 1036 l 378 538 l 475 538 b 678 785 608 538 678 619 b 475 1036 678 950 608 1036 "},"ĭ":{"ha":444,"x_min":0,"x_max":0,"o":"m 44 971 b 206 882 44 907 131 882 b 367 971 281 882 367 907 l 372 971 b 206 750 372 838 324 750 b 39 971 88 750 39 838 l 44 971 m 125 6 l 125 633 l 28 633 l 28 639 l 319 639 l 319 6 l 417 6 l 417 0 l 28 0 l 28 6 "},"Ĵ":{"ha":740,"x_min":0,"x_max":0,"o":"m 222 1114 l 219 1118 l 386 1306 l 504 1306 l 671 1118 l 668 1114 l 444 1208 m 719 1042 l 719 1036 l 581 1036 l 581 236 b 247 -42 525 104 450 -42 b 17 146 106 -42 17 42 b 144 278 17 225 75 278 b 264 154 207 278 264 232 b 144 31 264 85 211 31 b 50 61 99 31 61 47 b 244 -36 78 14 147 -36 b 367 264 350 -36 367 69 l 367 1036 l 186 1036 l 186 1042 "},"Ď":{"ha":1051,"x_min":0,"x_max":0,"o":"m 725 1329 l 729 1326 l 563 1139 l 444 1139 l 278 1326 l 281 1329 l 503 1236 m 25 0 l 25 6 l 150 6 l 150 1036 l 25 1036 l 25 1042 l 469 1042 b 997 521 800 1042 997 831 b 469 0 997 211 786 0 m 364 1036 l 364 6 l 469 6 b 753 521 683 6 753 247 b 469 1036 753 794 669 1036 "},"²":{"ha":653,"x_min":0,"x_max":0,"o":"m 139 635 l 139 718 l 315 861 b 425 1076 389 921 425 986 b 307 1251 425 1179 385 1251 b 153 1090 221 1251 150 1181 b 225 1144 163 1121 188 1144 b 304 1074 271 1144 304 1115 b 222 996 304 1028 264 996 b 147 1092 181 996 147 1028 b 356 1268 147 1190 225 1268 b 558 1110 486 1268 558 1197 b 401 921 558 1014 463 968 l 207 760 l 574 760 l 574 822 l 576 822 l 576 635 "},"Ŭ":{"ha":1003,"x_min":0,"x_max":0,"o":"m 342 1374 b 503 1285 342 1310 428 1285 b 664 1374 578 1285 664 1310 l 669 1374 b 503 1153 669 1240 621 1153 b 336 1374 385 1153 336 1240 l 342 1374 m 503 1042 l 503 1036 l 364 1036 l 364 333 b 578 -6 364 150 399 -6 b 842 319 740 -6 842 94 l 842 1036 l 711 1036 l 711 1042 l 983 1042 l 983 1036 l 847 1036 l 847 319 b 525 -21 847 90 751 -21 b 150 319 264 -21 150 79 l 150 1036 l 25 1036 l 25 1042 "},"ũ":{"ha":842,"x_min":0,"x_max":0,"o":"m 239 846 b 150 764 188 846 150 815 l 144 764 b 282 968 144 882 193 968 b 533 858 393 968 442 858 b 622 940 592 858 622 889 l 628 940 b 504 736 628 808 607 736 b 239 846 397 736 339 846 m 308 199 b 378 26 308 82 319 26 b 536 329 508 26 536 201 l 536 633 l 447 633 l 447 639 l 731 639 l 731 6 l 822 6 l 822 0 l 536 0 l 536 229 b 311 -14 521 110 471 -14 b 114 196 156 -14 114 75 l 114 633 l 22 633 l 22 639 l 308 639 "},"Š":{"ha":829,"x_min":0,"x_max":0,"o":"m 636 1329 l 640 1326 l 474 1139 l 356 1139 l 189 1326 l 192 1329 l 414 1236 m 58 -14 l 58 313 l 65 313 b 419 -14 118 149 217 -14 b 635 194 553 -14 635 72 b 72 778 635 458 72 375 b 381 1056 72 951 219 1056 b 590 975 465 1056 535 1028 l 714 1056 l 719 1056 l 719 743 l 713 743 b 389 1047 657 935 547 1047 b 219 881 276 1047 219 976 b 775 299 219 644 775 701 b 428 -21 775 104 624 -21 b 192 74 325 -21 250 17 l 64 -14 "},"ĩ":{"ha":444,"x_min":0,"x_max":0,"o":"m 64 846 b -25 764 13 846 -25 815 l -31 764 b 107 968 -31 882 18 968 b 358 858 218 968 267 858 b 447 940 417 858 447 889 l 453 940 b 329 736 453 808 432 736 b 64 846 222 736 164 846 m 125 6 l 125 633 l 28 633 l 28 639 l 319 639 l 319 6 l 417 6 l 417 0 l 28 0 l 28 6 "},"“":{"ha":729,"x_min":0,"x_max":0,"o":"m 674 757 b 539 633 674 690 613 633 b 400 819 464 633 400 697 b 676 1078 400 958 510 1078 l 676 1072 b 415 753 514 1072 376 947 b 549 881 424 817 474 881 b 674 757 628 881 674 824 m 326 757 b 192 633 326 690 265 633 b 53 819 117 633 53 697 b 329 1078 53 958 163 1078 l 329 1072 b 68 753 167 1072 29 947 b 201 881 76 817 126 881 b 326 757 281 881 326 824 "},"Č":{"ha":975,"x_min":0,"x_max":0,"o":"m 788 1329 l 792 1326 l 625 1139 l 507 1139 l 340 1326 l 343 1329 l 565 1236 m 919 0 l 914 0 l 800 79 b 558 -14 739 21 658 -14 b 58 521 249 -14 58 211 b 558 1056 58 831 249 1056 b 776 969 646 1056 718 1024 l 900 1042 l 906 1042 l 906 736 l 900 736 b 572 1044 851 914 728 1044 b 303 521 365 1044 303 774 b 572 -3 303 268 365 -3 b 914 306 761 -3 872 138 l 919 306 "},"Ň":{"ha":1039,"x_min":0,"x_max":0,"o":"m 764 1294 l 768 1292 l 601 1104 l 483 1104 l 317 1292 l 319 1294 l 542 1201 m 164 6 l 164 1036 l 25 1036 l 25 1042 l 419 1042 l 867 354 l 867 1036 l 708 1036 l 708 1042 l 1019 1042 l 1019 1036 l 872 1036 l 872 -14 l 864 -14 l 169 1033 l 169 6 l 331 6 l 331 0 l 25 0 l 25 6 "},"Ě":{"ha":871,"x_min":0,"x_max":0,"o":"m 649 1329 l 653 1326 l 486 1139 l 368 1139 l 201 1326 l 204 1329 l 426 1236 m 594 365 b 414 536 574 458 493 536 l 364 536 l 364 6 l 511 6 b 825 313 701 6 804 136 l 831 313 l 831 0 l 25 0 l 25 6 l 150 6 l 150 1036 l 25 1036 l 25 1042 l 817 1042 l 817 757 l 811 757 b 525 1036 790 906 688 1036 l 364 1036 l 364 542 l 414 542 b 594 706 493 542 574 613 l 600 706 l 600 365 l 594 365 "},"Ų":{"ha":1003,"x_min":0,"x_max":0,"o":"m 688 -237 b 515 -339 667 -276 635 -339 b 343 -219 424 -339 343 -303 b 543 -21 343 -122 447 -56 b 525 -21 538 -21 531 -21 b 150 319 264 -21 150 79 l 150 1036 l 25 1036 l 25 1042 l 503 1042 l 503 1036 l 364 1036 l 364 333 b 578 -6 364 150 399 -6 b 842 319 740 -6 842 94 l 842 1036 l 711 1036 l 711 1042 l 983 1042 l 983 1036 l 847 1036 l 847 319 b 579 -18 847 110 767 -1 b 529 -183 553 -43 529 -101 b 601 -306 529 -261 561 -306 b 685 -235 640 -306 663 -275 l 688 -237 "},"ľ":{"ha":743,"x_min":0,"x_max":0,"o":"m 433 1001 b 568 1125 433 1068 494 1125 b 707 939 643 1125 707 1061 b 431 681 707 800 597 681 l 431 686 b 692 1006 593 686 731 811 b 558 878 683 942 633 878 b 433 1001 479 878 433 935 m 142 6 l 142 1036 l 22 1036 l 22 1042 l 336 1042 l 336 6 l 456 6 l 456 0 l 22 0 l 22 6 "},"ĥ":{"ha":842,"x_min":0,"x_max":0,"o":"m 108 1135 l 106 1139 l 272 1326 l 390 1326 l 557 1139 l 554 1135 l 331 1229 m 114 6 l 114 1036 l 22 1036 l 22 1042 l 308 1042 l 308 410 b 533 653 324 529 374 653 b 731 443 689 653 731 564 l 731 6 l 822 6 l 822 0 l 467 0 l 467 6 l 536 6 l 536 440 b 467 613 536 557 525 613 b 308 310 335 613 308 438 l 308 6 l 378 6 l 378 0 l 22 0 l 22 6 "},"ę":{"ha":722,"x_min":0,"x_max":0,"o":"m 576 -224 b 404 -325 556 -262 524 -325 b 232 -206 313 -325 232 -289 b 417 -12 232 -114 325 -50 b 383 -14 406 -14 394 -14 b 43 319 188 -14 43 104 b 381 653 43 535 185 653 b 685 360 588 653 685 511 l 258 360 b 258 333 258 351 258 342 b 418 -3 258 154 288 -3 b 447 -1 428 -3 438 -3 b 474 7 457 1 465 4 l 476 4 b 679 199 578 25 650 103 l 686 199 b 467 -6 657 100 585 19 b 418 -169 442 -29 418 -89 b 490 -292 418 -247 450 -292 b 574 -221 529 -292 551 -261 l 576 -224 m 381 647 b 258 365 292 647 263 513 l 478 365 b 381 647 478 486 469 647 "},"Ŏ":{"ha":1058,"x_min":0,"x_max":0,"o":"m 378 1360 b 539 1271 378 1296 464 1271 b 700 1360 614 1271 700 1296 l 706 1360 b 539 1139 706 1226 657 1139 b 372 1360 421 1139 372 1226 l 378 1360 m 531 -14 b 58 521 235 -14 58 218 b 531 1056 58 824 249 1056 b 1003 521 813 1056 1003 824 b 531 -14 1003 218 826 -14 m 531 1050 b 303 521 351 1050 303 808 b 531 -8 303 233 338 -8 b 761 521 724 -8 761 233 b 531 1050 761 808 710 1050 "},"ť":{"ha":689,"x_min":0,"x_max":0,"o":"m 389 1071 b 524 1194 389 1138 450 1194 b 663 1008 599 1194 663 1131 b 386 750 663 869 553 750 l 386 756 b 647 1075 549 756 686 881 b 514 947 639 1011 589 947 b 389 1071 435 947 389 1004 m 494 142 b 271 -10 461 53 383 -10 b 110 161 136 -10 110 64 l 110 633 l 8 633 l 8 639 l 110 639 l 110 778 b 304 819 172 778 256 792 l 304 639 l 453 639 l 453 633 l 304 633 l 304 117 b 357 22 304 47 319 22 b 489 143 401 22 458 68 l 494 142 "},"ķ":{"ha":869,"x_min":0,"x_max":0,"o":"m 142 6 l 142 1036 l 22 1036 l 22 1042 l 336 1042 l 336 397 l 667 633 l 499 633 l 499 639 l 797 639 l 797 633 l 676 633 l 449 467 l 807 6 l 864 6 l 864 0 l 479 0 l 479 6 l 568 6 l 336 317 l 336 6 l 411 6 l 411 0 l 22 0 l 22 6 m 318 -207 b 453 -83 318 -140 379 -83 b 592 -269 528 -83 592 -147 b 315 -528 592 -408 482 -528 l 315 -522 b 576 -203 478 -522 615 -397 b 443 -331 568 -267 518 -331 b 318 -207 364 -331 318 -274 "},"ć":{"ha":710,"x_min":0,"x_max":0,"o":"m 192 790 l 189 796 l 497 908 b 601 835 551 928 601 882 b 511 758 601 788 558 753 m 625 528 b 419 644 603 592 514 644 b 272 319 289 644 272 450 b 419 0 272 161 303 0 b 651 199 536 0 615 82 l 658 199 b 388 -14 622 78 542 -14 b 43 319 185 -14 43 97 b 396 653 43 514 165 653 b 658 464 544 653 658 571 b 547 353 658 393 610 353 b 433 461 492 353 433 381 b 539 567 433 531 492 567 b 625 528 582 567 610 549 "},"ř":{"ha":649,"x_min":0,"x_max":0,"o":"m 554 919 l 558 917 l 392 729 l 274 729 l 107 917 l 110 919 l 332 826 m 114 6 l 114 633 l 22 633 l 22 639 l 308 639 l 308 436 b 489 653 321 556 364 653 b 644 506 567 653 644 594 b 528 386 644 442 601 386 b 411 497 461 386 411 428 b 622 553 411 608 563 653 b 486 647 604 613 543 647 b 308 310 321 647 308 465 l 308 6 l 400 6 l 400 0 l 22 0 l 22 6 "},"³":{"ha":625,"x_min":0,"x_max":0,"o":"m 533 806 b 304 626 533 693 429 626 b 111 769 172 626 111 700 b 183 846 111 815 142 846 b 250 776 221 846 250 819 b 179 710 250 738 217 710 b 121 742 151 710 132 722 b 286 635 131 690 186 635 b 399 806 376 635 399 715 b 256 971 399 879 375 971 l 256 974 b 374 1128 367 974 374 1069 b 294 1260 374 1193 351 1260 b 153 1176 233 1260 169 1221 b 208 1204 167 1196 189 1204 b 272 1140 242 1204 272 1179 b 204 1071 272 1096 238 1071 b 136 1139 167 1071 136 1094 b 308 1267 136 1211 222 1267 b 508 1124 417 1267 508 1215 b 307 972 508 1047 465 983 b 533 806 476 961 533 893 "},"Ž":{"ha":857,"x_min":0,"x_max":0,"o":"m 649 1329 l 653 1326 l 486 1139 l 368 1139 l 201 1326 l 204 1329 l 426 1236 m 794 1042 l 794 1036 l 261 6 l 517 6 b 803 285 707 6 775 108 l 808 285 l 808 0 l 17 0 l 17 6 l 553 1036 l 336 1036 b 50 785 146 1036 78 933 l 44 785 l 44 1042 "},"Ā":{"ha":1086,"x_min":0,"x_max":0,"o":"m 753 1163 l 753 1157 l 361 1157 l 361 1163 m 157 6 l 275 340 l 275 342 l 528 1063 l 600 1063 l 968 6 l 1067 6 l 1067 0 l 594 0 l 594 6 l 718 6 l 610 336 l 278 336 l 163 6 l 331 6 l 331 0 l 25 0 l 25 6 m 281 342 l 608 342 l 450 828 "},"˘":{"ha":417,"x_min":0,"x_max":0,"o":"m 47 1054 b 208 965 47 990 133 965 b 369 1054 283 965 369 990 l 375 1054 b 208 833 375 921 326 833 b 42 1054 90 833 42 921 l 47 1054 "},"ĵ":{"ha":451,"x_min":0,"x_max":0,"o":"m -8 711 l -11 715 l 156 903 l 274 903 l 440 715 l 438 711 l 214 806 m 347 -17 b 44 -361 347 -199 239 -361 b -167 -196 -82 -361 -167 -287 b -53 -82 -167 -125 -114 -82 b 58 -185 3 -82 58 -115 b -61 -290 58 -251 11 -290 b -153 -219 -114 -290 -147 -256 b 28 -353 -150 -286 -75 -353 b 150 29 174 -353 150 -147 l 153 633 l 28 633 l 28 639 l 347 639 "},"Œ":{"ha":1378,"x_min":0,"x_max":0,"o":"m 1101 365 b 921 536 1081 458 1000 536 l 871 536 l 871 6 l 1018 6 b 1332 313 1208 6 1311 136 l 1338 313 l 1338 0 l 532 0 l 531 0 b 56 521 249 0 56 211 b 531 1042 56 831 249 1042 l 532 1042 l 1324 1042 l 1324 757 l 1318 757 b 1032 1036 1297 906 1194 1036 l 871 1036 l 871 542 l 921 542 b 1101 706 1000 542 1081 613 l 1107 706 l 1107 365 l 1101 365 m 299 521 b 558 6 299 247 365 6 l 657 6 l 657 1036 l 558 1036 b 299 521 365 1036 299 794 "},"Ī":{"ha":579,"x_min":0,"x_max":0,"o":"m 494 1156 l 494 1150 l 103 1150 l 103 1156 m 178 6 l 178 1036 l 25 1036 l 25 1042 l 558 1042 l 558 1036 l 392 1036 l 392 6 l 558 6 l 558 0 l 25 0 l 25 6 "},"ū":{"ha":842,"x_min":0,"x_max":0,"o":"m 581 747 l 581 742 l 189 742 l 189 747 m 308 199 b 378 26 308 82 319 26 b 536 329 508 26 536 201 l 536 633 l 447 633 l 447 639 l 731 639 l 731 6 l 822 6 l 822 0 l 536 0 l 536 229 b 311 -14 521 110 471 -14 b 114 196 156 -14 114 75 l 114 633 l 22 633 l 22 639 l 308 639 "},"":{"ha":889,"x_min":0,"x_max":0,"o":"m 117 785 b 438 1106 117 963 260 1106 b 758 785 615 1106 758 963 b 438 464 758 607 615 464 b 117 785 260 464 117 607 m 119 785 b 438 467 119 610 263 467 b 756 785 613 467 756 610 b 438 1103 756 960 613 1103 b 119 785 263 1103 119 960 m 319 597 l 319 968 l 269 968 l 269 971 l 444 971 b 585 878 528 971 585 943 b 472 788 585 821 543 793 b 599 597 636 788 538 597 b 626 604 610 597 619 600 l 626 601 b 567 592 619 597 597 592 b 432 788 431 592 554 788 l 397 788 l 397 597 l 447 597 l 447 596 l 269 596 l 269 597 m 397 968 l 397 789 l 432 789 b 504 878 479 789 504 818 b 432 968 504 938 479 968 "},"Ę":{"ha":871,"x_min":0,"x_max":0,"o":"m 594 365 b 414 536 574 458 493 536 l 364 536 l 364 6 l 511 6 b 825 313 701 6 804 136 l 831 313 l 831 0 l 678 0 b 628 -165 653 -24 628 -83 b 700 -287 628 -243 660 -287 b 783 -217 739 -287 761 -257 l 786 -219 b 614 -321 765 -258 733 -321 b 442 -201 522 -321 442 -285 b 649 0 442 -101 550 -35 l 25 0 l 25 6 l 150 6 l 150 1036 l 25 1036 l 25 1042 l 817 1042 l 817 757 l 811 757 b 525 1036 790 906 688 1036 l 364 1036 l 364 542 l 414 542 b 594 706 493 542 574 613 l 600 706 l 600 365 l 594 365 "},"ĺ":{"ha":474,"x_min":0,"x_max":0,"o":"m 43 1143 l 40 1149 l 349 1261 b 453 1188 403 1281 453 1235 b 363 1111 453 1140 410 1106 m 142 6 l 142 1036 l 22 1036 l 22 1042 l 336 1042 l 336 6 l 456 6 l 456 0 l 22 0 l 22 6 "},"Ĳ":{"ha":1300,"x_min":0,"x_max":0,"o":"m 178 6 l 178 1036 l 25 1036 l 25 1042 l 558 1042 l 558 1036 l 392 1036 l 392 6 l 558 6 l 558 0 l 25 0 l 25 6 m 1282 1042 l 1282 1036 l 1143 1036 l 1143 236 b 810 -42 1088 104 1013 -42 b 579 146 668 -42 579 42 b 707 278 579 225 638 278 b 826 154 769 278 826 232 b 707 31 826 85 774 31 b 613 61 661 31 624 47 b 807 -36 640 14 710 -36 b 929 264 913 -36 929 69 l 929 1036 l 749 1036 l 749 1042 "},"№":{"ha":1592,"x_min":0,"x_max":0,"o":"m 1042 792 b 1297 1056 1042 965 1150 1056 b 1553 792 1444 1056 1553 965 b 1297 528 1553 618 1444 528 b 1042 792 1150 528 1042 618 m 1201 792 b 1297 533 1201 633 1229 533 b 1393 792 1365 533 1393 633 b 1297 1050 1393 950 1365 1050 b 1201 792 1229 1050 1201 950 m 164 6 l 164 1036 l 25 1036 l 25 1042 l 419 1042 l 867 354 l 867 1036 l 708 1036 l 708 1042 l 1019 1042 l 1019 1036 l 872 1036 l 872 -14 l 864 -14 l 169 1033 l 169 6 l 331 6 l 331 0 l 25 0 l 25 6 m 1464 440 l 1464 435 l 1131 435 l 1131 440 "},"‱":{"ha":2785,"x_min":0,"x_max":0,"o":"m 49 750 b 354 1056 49 949 197 1056 b 660 750 511 1056 660 949 b 354 444 660 551 483 444 b 49 750 197 444 49 551 m 264 750 b 354 450 264 561 286 450 b 444 750 422 450 444 561 b 354 1050 444 939 422 1050 b 264 750 286 1050 264 939 m 1076 1042 l 347 0 l 340 0 l 1069 1042 m 2125 292 b 2431 597 2125 490 2274 597 b 2736 292 2588 597 2736 490 b 2431 -14 2736 93 2560 -14 b 2125 292 2274 -14 2125 93 m 1438 292 b 1743 597 1438 490 1586 597 b 2049 292 1900 597 2049 490 b 1743 -14 2049 93 1872 -14 b 1438 292 1586 -14 1438 93 m 757 292 b 1063 597 757 490 906 597 b 1368 292 1219 597 1368 490 b 1063 -14 1368 93 1192 -14 b 757 292 906 -14 757 93 m 2340 292 b 2431 -8 2340 103 2363 -8 b 2521 292 2499 -8 2521 103 b 2431 592 2521 481 2499 592 b 2340 292 2363 592 2340 481 m 1653 292 b 1743 -8 1653 103 1675 -8 b 1833 292 1811 -8 1833 103 b 1743 592 1833 481 1811 592 b 1653 292 1675 592 1653 481 m 972 292 b 1063 -8 972 103 994 -8 b 1153 292 1131 -8 1153 103 b 1063 592 1153 481 1131 592 b 972 292 994 592 972 481 "},"Ģ":{"ha":1051,"x_min":0,"x_max":0,"o":"m 1039 399 l 1039 393 l 969 393 l 969 215 b 553 -14 879 121 779 -14 b 58 521 243 -14 58 197 b 572 1056 58 844 290 1056 b 790 975 653 1056 729 1025 l 928 1042 l 933 1042 l 933 736 l 928 736 b 592 1044 900 885 758 1044 b 303 521 385 1044 303 774 b 553 -7 303 268 353 -7 b 739 174 669 -7 718 115 l 739 393 l 594 393 l 594 399 m 425 -221 b 560 -97 425 -154 486 -97 b 699 -283 635 -97 699 -161 b 422 -542 699 -422 589 -542 l 422 -536 b 683 -217 585 -536 722 -411 b 550 -344 675 -281 625 -344 b 425 -221 471 -344 425 -287 "},"­":{"ha":500,"x_min":0,"x_max":0,"o":"m 417 385 l 417 379 l 83 379 l 83 385 "},"ẞ":{"ha":1238,"x_min":0,"x_max":0,"o":"m 146 6 l 146 613 b 733 1056 146 908 403 1056 b 1140 911 946 1056 1092 964 l 858 561 b 1182 281 1106 522 1182 414 b 800 -14 1182 93 1010 -14 b 479 224 582 -14 479 110 b 600 353 479 301 531 353 b 711 236 663 353 711 307 b 593 125 711 171 654 125 b 489 197 540 125 501 164 b 758 -1 503 92 608 -1 b 956 278 906 -1 956 126 b 636 571 956 401 906 571 l 636 576 l 978 1000 b 733 1050 935 1019 844 1050 b 368 599 464 1050 368 858 l 368 6 l 493 6 l 493 0 l 21 0 l 21 6 "},"":{"ha":806,"x_min":0,"x_max":0,"o":"m 75 785 b 396 1106 75 963 218 1106 b 717 785 574 1106 717 963 b 396 464 717 607 574 464 b 75 785 218 464 75 607 m 78 785 b 396 467 78 610 221 467 b 714 785 571 467 714 610 b 396 1103 714 960 571 1103 b 78 785 221 1103 78 960 m 533 597 l 531 597 l 490 625 b 403 592 468 604 439 592 b 222 785 292 592 222 674 b 403 978 222 896 292 978 b 481 946 433 978 460 965 l 525 972 l 528 972 l 528 863 l 525 863 b 408 974 508 926 464 974 b 311 785 333 974 311 876 b 408 596 311 693 333 596 b 531 707 475 596 515 647 l 533 707 "},"¨":{"ha":632,"x_min":0,"x_max":0,"o":"m 365 1076 b 472 1182 365 1135 413 1182 b 578 1076 531 1182 578 1135 b 472 969 578 1017 531 969 b 365 1076 413 969 365 1017 m 67 1076 b 174 1182 67 1135 114 1182 b 279 1076 232 1182 279 1135 b 174 969 279 1017 232 969 b 67 1076 114 969 67 1017 "},"Į":{"ha":579,"x_min":0,"x_max":0,"o":"m 178 6 l 178 1036 l 25 1036 l 25 1042 l 558 1042 l 558 1036 l 392 1036 l 392 6 l 558 6 l 558 0 l 281 0 b 233 -162 256 -25 233 -83 b 306 -285 233 -240 265 -285 b 389 -214 344 -285 367 -254 l 392 -217 b 219 -318 371 -256 339 -318 b 47 -199 128 -318 47 -282 b 247 0 47 -101 150 -36 l 25 0 l 25 6 "},"ī":{"ha":444,"x_min":0,"x_max":0,"o":"m 369 753 l 369 747 l -22 747 l -22 753 m 125 6 l 125 633 l 28 633 l 28 639 l 319 639 l 319 6 l 417 6 l 417 0 l 28 0 l 28 6 "},"Ÿ":{"ha":1024,"x_min":0,"x_max":0,"o":"m 604 1246 b 711 1351 604 1304 651 1351 b 817 1246 769 1351 817 1304 b 711 1139 817 1186 769 1139 b 604 1246 651 1139 604 1186 m 306 1246 b 413 1351 306 1304 353 1351 b 518 1246 471 1351 518 1304 b 413 1139 518 1186 471 1139 b 306 1246 353 1139 306 1186 m 419 6 l 419 500 l 110 1036 l 17 1036 l 17 1042 l 503 1042 l 503 1036 l 360 1036 l 631 539 l 881 1036 l 719 1036 l 719 1042 l 1011 1042 l 1011 1036 l 889 1036 l 636 532 l 636 6 l 775 6 l 775 0 l 294 0 l 294 6 "},"Ĝ":{"ha":1051,"x_min":0,"x_max":0,"o":"m 357 1149 l 354 1153 l 521 1340 l 639 1340 l 806 1153 l 803 1149 l 579 1243 m 1039 399 l 1039 393 l 969 393 l 969 215 b 553 -14 879 121 779 -14 b 58 521 243 -14 58 197 b 572 1056 58 844 290 1056 b 790 975 653 1056 729 1025 l 928 1042 l 933 1042 l 933 736 l 928 736 b 592 1044 900 885 758 1044 b 303 521 385 1044 303 774 b 553 -7 303 268 353 -7 b 739 174 669 -7 718 115 l 739 393 l 594 393 l 594 399 "},"Ŗ":{"ha":1031,"x_min":0,"x_max":0,"o":"m 164 6 l 164 1036 l 25 1036 l 25 1042 l 511 1042 b 900 785 742 1042 900 965 b 589 535 900 624 786 550 b 939 4 1040 532 768 4 b 1014 22 968 4 994 14 l 1017 17 b 850 -11 994 4 933 -11 b 475 532 471 -11 817 532 l 378 532 l 378 6 l 517 6 l 517 0 l 25 0 l 25 6 m 378 1036 l 378 538 l 475 538 b 678 785 608 538 678 619 b 475 1036 678 950 608 1036 m 458 -196 b 593 -72 458 -129 519 -72 b 732 -258 668 -72 732 -136 b 456 -517 732 -397 622 -517 l 456 -511 b 717 -192 618 -511 756 -386 b 583 -319 708 -256 658 -319 b 458 -196 504 -319 458 -262 "},"ņ":{"ha":842,"x_min":0,"x_max":0,"o":"m 114 6 l 114 633 l 22 633 l 22 639 l 308 639 l 308 410 b 533 653 324 529 374 653 b 731 443 689 653 731 564 l 731 6 l 822 6 l 822 0 l 467 0 l 467 6 l 536 6 l 536 440 b 467 613 536 557 525 613 b 308 310 336 613 308 438 l 308 6 l 378 6 l 378 0 l 22 0 l 22 6 m 300 -207 b 435 -83 300 -140 361 -83 b 574 -269 510 -83 574 -147 b 297 -528 574 -408 464 -528 l 297 -522 b 558 -203 460 -522 597 -397 b 425 -331 550 -267 500 -331 b 300 -207 346 -331 300 -274 "},"Ś":{"ha":829,"x_min":0,"x_max":0,"o":"m 297 1157 l 294 1163 l 603 1275 b 707 1201 657 1294 707 1249 b 617 1125 707 1154 664 1119 m 58 -14 l 58 313 l 65 313 b 419 -14 118 149 217 -14 b 635 194 553 -14 635 72 b 72 778 635 458 72 375 b 381 1056 72 951 219 1056 b 590 975 465 1056 535 1028 l 714 1056 l 719 1056 l 719 743 l 713 743 b 389 1047 657 935 547 1047 b 219 881 276 1047 219 976 b 775 299 219 644 775 701 b 428 -21 775 104 624 -21 b 192 74 325 -21 250 17 l 64 -14 "},"Ŷ":{"ha":1024,"x_min":0,"x_max":0,"o":"m 297 1149 l 294 1153 l 461 1340 l 579 1340 l 746 1153 l 743 1149 l 519 1243 m 419 6 l 419 500 l 110 1036 l 17 1036 l 17 1042 l 503 1042 l 503 1036 l 360 1036 l 631 539 l 881 1036 l 719 1036 l 719 1042 l 1011 1042 l 1011 1036 l 889 1036 l 636 532 l 636 6 l 775 6 l 775 0 l 294 0 l 294 6 "},"Đ":{"ha":1051,"x_min":0,"x_max":0,"o":"m 25 0 l 25 6 l 150 6 l 150 504 l 25 504 l 25 510 l 150 510 l 150 1036 l 25 1036 l 25 1042 l 469 1042 b 997 521 800 1042 997 831 b 469 0 997 211 786 0 m 364 504 l 364 6 l 469 6 b 753 521 683 6 753 247 b 469 1036 753 794 669 1036 l 364 1036 l 364 510 l 507 510 l 507 504 "},"ﬃ":{"ha":1292,"x_min":0,"x_max":0,"o":"m 142 6 l 142 633 l 17 633 l 17 639 l 142 639 l 142 642 b 500 986 142 836 292 986 b 643 938 557 986 607 967 b 947 1056 708 1011 813 1056 b 1174 890 1094 1056 1174 976 b 1067 776 1174 819 1129 776 b 954 879 1011 776 954 813 b 1063 986 954 946 1004 986 b 1158 919 1118 986 1150 956 b 947 1050 1144 992 1072 1050 b 750 750 794 1050 750 926 l 750 639 l 1169 639 l 1169 6 l 1267 6 l 1267 0 l 17 0 l 17 6 m 563 711 b 486 811 521 724 486 757 b 592 917 486 881 533 917 b 622 913 603 917 613 915 b 638 932 626 919 632 925 b 506 979 606 958 560 979 b 331 681 394 979 331 857 l 331 639 l 563 639 l 563 711 m 563 6 l 563 633 l 331 633 l 331 6 m 750 633 l 750 6 l 975 6 l 975 633 "},"ų":{"ha":842,"x_min":0,"x_max":0,"o":"m 308 199 b 378 26 308 82 319 26 b 536 329 508 26 536 201 l 536 633 l 447 633 l 447 639 l 731 639 l 731 6 l 822 6 l 822 0 l 693 0 b 650 -157 669 -28 650 -83 b 722 -279 650 -235 682 -279 b 806 -208 761 -279 783 -249 l 808 -211 b 636 -312 788 -250 756 -312 b 464 -193 544 -312 464 -276 b 649 0 464 -101 557 -36 l 536 0 l 536 229 b 311 -14 521 110 471 -14 b 114 196 156 -14 114 75 l 114 633 l 22 633 l 22 639 l 308 639 "},"ȓ":{"ha":649,"x_min":0,"x_max":0,"o":"m 179 736 b 346 957 179 869 228 957 b 513 736 464 957 513 869 l 507 736 b 346 825 507 800 421 825 b 185 736 271 825 185 800 m 114 6 l 114 633 l 22 633 l 22 639 l 308 639 l 308 436 b 489 653 321 556 364 653 b 644 506 567 653 644 594 b 528 386 644 442 601 386 b 411 497 461 386 411 428 b 622 553 411 608 563 653 b 486 647 604 613 543 647 b 308 310 321 647 308 465 l 308 6 l 400 6 l 400 0 l 22 0 l 22 6 "},"π":{"ha":876,"x_min":0,"x_max":0,"o":"m 172 -14 b 56 81 101 -14 56 25 b 274 388 56 210 274 149 l 274 444 l 63 444 l 63 340 l 57 340 l 57 639 l 800 639 l 800 444 l 675 444 l 675 108 b 728 56 675 81 689 56 b 822 147 764 56 794 81 l 828 143 b 643 -14 796 46 743 -14 b 481 115 550 -14 481 26 l 481 444 l 351 444 l 351 338 b 172 -14 351 118 288 -14 "},"ĸ":{"ha":893,"x_min":0,"x_max":0,"o":"m 153 6 l 153 633 l 28 633 l 28 639 l 347 639 l 347 397 l 678 633 l 497 633 l 497 639 l 808 639 l 808 633 l 688 633 l 458 467 l 818 6 l 875 6 l 875 0 l 483 0 l 483 6 l 579 6 l 347 317 l 347 6 l 422 6 l 422 0 l 28 0 l 28 6 "},"˙":{"ha":325,"x_min":0,"x_max":0,"o":"m 63 964 b 169 1071 63 1024 110 1071 b 275 964 228 1071 275 1024 b 169 858 275 906 228 858 b 63 964 110 858 63 906 "},"ă":{"ha":800,"x_min":0,"x_max":0,"o":"m 219 971 b 381 882 219 907 306 882 b 542 971 456 882 542 907 l 547 971 b 381 750 547 838 499 750 b 214 971 263 750 214 838 l 219 971 m 454 351 l 454 424 b 322 642 454 531 426 642 b 154 585 246 642 179 610 b 322 504 247 621 322 569 b 206 404 322 442 261 404 b 99 501 143 404 99 444 b 360 650 99 590 219 650 b 649 424 589 650 649 550 l 649 64 b 700 13 649 33 667 13 b 796 89 722 13 768 32 l 801 88 b 617 -14 769 18 697 -14 b 454 108 531 -14 454 14 l 454 182 b 238 -14 438 54 369 -14 b 50 157 128 -14 50 54 b 354 351 50 274 151 351 m 339 43 b 454 251 394 43 454 93 l 454 346 l 403 346 b 261 175 318 346 261 267 b 339 43 261 92 289 43 "},"ň":{"ha":842,"x_min":0,"x_max":0,"o":"m 692 919 l 696 917 l 529 729 l 411 729 l 244 917 l 247 919 l 469 826 m 114 6 l 114 633 l 22 633 l 22 639 l 308 639 l 308 410 b 533 653 324 529 374 653 b 731 443 689 653 731 564 l 731 6 l 822 6 l 822 0 l 467 0 l 467 6 l 536 6 l 536 440 b 467 613 536 557 525 613 b 308 310 336 613 308 438 l 308 6 l 378 6 l 378 0 l 22 0 l 22 6 "},"˜":{"ha":622,"x_min":0,"x_max":0,"o":"m 164 908 b 75 826 113 908 75 878 l 69 826 b 207 1031 69 944 118 1031 b 458 921 318 1031 367 921 b 547 1003 517 921 547 951 l 553 1003 b 429 799 553 871 532 799 b 164 908 322 799 264 908 "},"ŭ":{"ha":842,"x_min":0,"x_max":0,"o":"m 219 971 b 381 882 219 907 306 882 b 542 971 456 882 542 907 l 547 971 b 381 750 547 838 499 750 b 214 971 263 750 214 838 l 219 971 m 308 199 b 378 26 308 82 319 26 b 536 329 508 26 536 201 l 536 633 l 447 633 l 447 639 l 731 639 l 731 6 l 822 6 l 822 0 l 536 0 l 536 229 b 311 -14 521 110 471 -14 b 114 196 156 -14 114 75 l 114 633 l 22 633 l 22 639 l 308 639 "},"ŕ":{"ha":649,"x_min":0,"x_max":0,"o":"m 131 782 l 128 788 l 436 900 b 540 826 490 919 540 874 b 450 750 540 779 497 744 m 114 6 l 114 633 l 22 633 l 22 639 l 308 639 l 308 436 b 489 653 321 556 364 653 b 644 506 567 653 644 594 b 528 386 644 442 601 386 b 411 497 461 386 411 428 b 622 553 411 608 563 653 b 486 647 604 613 543 647 b 308 310 321 647 308 465 l 308 6 l 400 6 l 400 0 l 22 0 l 22 6 "},"ļ":{"ha":474,"x_min":0,"x_max":0,"o":"m 142 6 l 142 1036 l 22 1036 l 22 1042 l 336 1042 l 336 6 l 456 6 l 456 0 l 22 0 l 22 6 m 115 -207 b 250 -83 115 -140 176 -83 b 389 -269 325 -83 389 -147 b 113 -528 389 -408 279 -528 l 113 -522 b 374 -203 275 -522 413 -397 b 240 -331 365 -267 315 -331 b 115 -207 161 -331 115 -274 "},"ŏ":{"ha":761,"x_min":0,"x_max":0,"o":"m 228 957 b 389 868 228 893 314 868 b 550 957 464 868 550 893 l 556 957 b 389 736 556 824 507 736 b 222 957 271 736 222 824 l 228 957 m 43 319 b 382 653 43 500 172 653 b 721 319 592 653 721 500 b 382 -14 721 139 592 -14 b 43 319 172 -14 43 139 m 251 319 b 382 -8 251 154 279 -8 b 513 319 485 -8 513 154 b 382 647 513 485 485 647 b 251 319 279 647 251 485 "},"‒":{"ha":618,"x_min":0,"x_max":0,"o":"m 535 385 l 535 379 l 83 379 l 83 385 "},"Ą":{"ha":1086,"x_min":0,"x_max":0,"o":"m 157 6 l 275 340 l 275 342 l 528 1063 l 600 1063 l 968 6 l 1067 6 l 1067 0 l 896 0 b 853 -158 874 -28 853 -83 b 925 -281 853 -236 885 -281 b 1008 -210 964 -281 986 -250 l 1011 -212 b 839 -314 990 -251 958 -314 b 667 -194 747 -314 667 -278 b 856 0 667 -101 763 -36 l 594 0 l 594 6 l 718 6 l 610 336 l 278 336 l 163 6 l 331 6 l 331 0 l 25 0 l 25 6 m 281 342 l 608 342 l 450 828 "},"ˆ":{"ha":590,"x_min":0,"x_max":0,"o":"m 72 878 l 69 882 l 236 1069 l 354 1069 l 521 882 l 518 878 l 294 972 "},"Ĭ":{"ha":579,"x_min":0,"x_max":0,"o":"m 131 1374 b 292 1285 131 1310 217 1285 b 453 1374 367 1285 453 1310 l 458 1374 b 292 1153 458 1240 410 1153 b 125 1374 174 1153 125 1240 l 131 1374 m 178 6 l 178 1036 l 25 1036 l 25 1042 l 558 1042 l 558 1036 l 392 1036 l 392 6 l 558 6 l 558 0 l 25 0 l 25 6 "},"Ū":{"ha":1003,"x_min":0,"x_max":0,"o":"m 703 1150 l 703 1144 l 311 1144 l 311 1150 m 503 1042 l 503 1036 l 364 1036 l 364 333 b 578 -6 364 150 399 -6 b 842 319 740 -6 842 94 l 842 1036 l 711 1036 l 711 1042 l 983 1042 l 983 1036 l 847 1036 l 847 319 b 525 -21 847 90 751 -21 b 150 319 264 -21 150 79 l 150 1036 l 25 1036 l 25 1042 "},"ł":{"ha":474,"x_min":0,"x_max":0,"o":"m 142 6 l 142 594 l 15 519 l 15 528 l 142 603 l 142 1036 l 22 1036 l 22 1042 l 336 1042 l 336 719 l 481 806 l 481 797 l 336 711 l 336 6 l 456 6 l 456 0 l 22 0 l 22 6 "},"Ć":{"ha":975,"x_min":0,"x_max":0,"o":"m 358 1171 l 356 1176 l 664 1289 b 768 1215 718 1308 768 1263 b 678 1139 768 1168 725 1133 m 919 0 l 914 0 l 800 79 b 558 -14 739 21 658 -14 b 58 521 249 -14 58 211 b 558 1056 58 831 249 1056 b 776 969 646 1056 718 1024 l 900 1042 l 906 1042 l 906 736 l 900 736 b 572 1044 851 914 728 1044 b 303 521 365 1044 303 774 b 572 -3 303 268 365 -3 b 914 306 761 -3 872 138 l 919 306 "},"ā":{"ha":800,"x_min":0,"x_max":0,"o":"m 581 753 l 581 747 l 189 747 l 189 753 m 454 351 l 454 424 b 322 642 454 531 426 642 b 154 585 246 642 179 610 b 322 504 247 621 322 569 b 206 404 322 442 261 404 b 99 501 143 404 99 444 b 360 650 99 590 219 650 b 649 424 589 650 649 550 l 649 64 b 700 13 649 33 667 13 b 796 89 722 13 768 32 l 801 88 b 617 -14 769 18 697 -14 b 454 108 531 -14 454 14 l 454 182 b 238 -14 438 54 369 -14 b 50 157 128 -14 50 54 b 354 351 50 274 151 351 m 339 43 b 454 251 394 43 454 93 l 454 346 l 403 346 b 261 175 318 346 261 267 b 339 43 261 92 289 43 "},"đ":{"ha":858,"x_min":0,"x_max":0,"o":"m 839 0 l 554 0 l 554 239 b 338 -14 536 78 463 -14 b 43 319 186 -14 43 111 b 338 651 43 528 186 651 b 554 400 461 651 536 561 l 554 789 l 426 789 l 426 794 l 554 794 l 554 1036 l 463 1036 l 463 1042 l 749 1042 l 749 794 l 851 794 l 851 789 l 749 789 l 749 6 l 839 6 m 554 319 b 381 632 554 532 467 632 b 265 319 299 632 265 519 b 381 7 265 119 299 7 b 554 319 467 7 554 107 "},"―":{"ha":794,"x_min":0,"x_max":0,"o":"m 711 385 l 711 379 l 83 379 l 83 385 "},"ń":{"ha":842,"x_min":0,"x_max":0,"o":"m 289 754 l 286 760 l 594 872 b 699 799 649 892 699 846 b 608 722 699 751 656 717 m 114 6 l 114 633 l 22 633 l 22 639 l 308 639 l 308 410 b 533 653 324 529 374 653 b 731 443 689 653 731 564 l 731 6 l 822 6 l 822 0 l 467 0 l 467 6 l 536 6 l 536 440 b 467 613 536 557 525 613 b 308 310 336 613 308 438 l 308 6 l 378 6 l 378 0 l 22 0 l 22 6 "},"ﬄ":{"ha":1375,"x_min":0,"x_max":0,"o":"m 142 6 l 142 633 l 17 633 l 17 639 l 142 639 l 142 642 b 500 986 142 836 292 986 b 650 932 561 986 614 964 b 919 1056 711 1008 806 1056 b 1050 1014 974 1056 1017 1040 l 1243 1069 l 1243 6 l 1354 6 l 1354 0 l 17 0 l 17 6 m 764 633 l 764 6 l 1049 6 l 1049 785 b 1004 776 1035 779 1021 776 b 892 879 949 776 892 810 b 1000 986 892 949 939 986 b 1049 974 1019 986 1035 981 l 1049 1007 b 926 1050 1018 1033 975 1050 b 764 750 803 1050 764 926 l 764 639 l 956 639 l 956 633 m 331 639 l 576 639 l 576 708 b 486 811 529 717 486 750 b 592 917 486 881 533 917 b 633 908 606 917 621 914 b 646 926 638 914 642 921 b 506 981 613 957 563 981 b 331 681 394 981 331 857 m 576 6 l 576 633 l 331 633 l 331 6 "},"˛":{"ha":764,"x_min":0,"x_max":0,"o":"m 556 -171 b 383 -272 535 -210 503 -272 b 211 -153 292 -272 211 -236 b 453 60 211 -42 347 29 l 457 56 b 397 -117 428 39 397 -25 b 469 -239 397 -194 429 -239 b 553 -168 508 -239 531 -208 l 556 -171 "},"Ȓ":{"ha":1031,"x_min":0,"x_max":0,"o":"m 344 1139 b 511 1360 344 1272 393 1360 b 678 1139 629 1360 678 1272 l 672 1139 b 511 1228 672 1203 586 1228 b 350 1139 436 1228 350 1203 m 164 6 l 164 1036 l 25 1036 l 25 1042 l 511 1042 b 900 785 742 1042 900 965 b 589 535 900 624 786 550 b 939 4 1040 532 768 4 b 1014 22 968 4 994 14 l 1017 17 b 850 -11 994 4 933 -11 b 475 532 471 -11 817 532 l 378 532 l 378 6 l 517 6 l 517 0 l 25 0 l 25 6 m 378 1036 l 378 538 l 475 538 b 678 785 608 538 678 619 b 475 1036 678 950 608 1036 "},"¸":{"ha":764,"x_min":0,"x_max":0,"o":"m 429 -194 b 301 -110 429 -121 371 -110 l 426 57 l 436 57 l 353 -54 b 583 -167 486 -58 583 -89 b 307 -294 583 -236 517 -294 l 307 -289 b 429 -194 389 -289 429 -247 "},"‰":{"ha":2097,"x_min":0,"x_max":0,"o":"m 49 750 b 354 1056 49 949 197 1056 b 660 750 511 1056 660 949 b 354 444 660 551 483 444 b 49 750 197 444 49 551 m 264 750 b 354 450 264 561 286 450 b 444 750 422 450 444 561 b 354 1050 444 939 422 1050 b 264 750 286 1050 264 939 m 1076 1042 l 347 0 l 340 0 l 1069 1042 m 1438 292 b 1743 597 1438 490 1586 597 b 2049 292 1900 597 2049 490 b 1743 -14 2049 93 1872 -14 b 1438 292 1586 -14 1438 93 m 757 292 b 1063 597 757 490 906 597 b 1368 292 1219 597 1368 490 b 1063 -14 1368 93 1192 -14 b 757 292 906 -14 757 93 m 1653 292 b 1743 -8 1653 103 1675 -8 b 1833 292 1811 -8 1833 103 b 1743 592 1833 481 1811 592 b 1653 292 1675 592 1653 481 m 972 292 b 1063 -8 972 103 994 -8 b 1153 292 1131 -8 1153 103 b 1063 592 1153 481 1131 592 b 972 292 994 592 972 481 "},"Ĉ":{"ha":975,"x_min":0,"x_max":0,"o":"m 343 1114 l 340 1118 l 507 1306 l 625 1306 l 792 1118 l 789 1114 l 565 1208 m 919 0 l 914 0 l 800 79 b 558 -14 739 21 658 -14 b 58 521 249 -14 58 211 b 558 1056 58 831 249 1056 b 776 969 646 1056 718 1024 l 900 1042 l 906 1042 l 906 736 l 900 736 b 572 1044 851 914 728 1044 b 303 521 365 1044 303 774 b 572 -3 303 268 365 -3 b 914 306 761 -3 872 138 l 919 306 "},"‐":{"ha":500,"x_min":0,"x_max":0,"o":"m 417 385 l 417 379 l 83 379 l 83 385 "},"‽":{"ha":917,"x_min":0,"x_max":0,"o":"m 90 772 b 474 1056 90 900 228 1056 b 861 764 683 1056 861 951 b 482 465 861 588 660 471 b 450 338 464 418 450 374 l 444 338 b 358 721 444 435 374 588 b 357 747 357 731 357 739 b 461 851 357 786 382 851 b 565 747 540 851 565 786 b 564 721 565 739 565 731 b 485 472 554 640 514 551 b 679 778 592 490 679 638 b 442 1040 679 908 593 1040 b 106 804 243 1040 117 906 b 204 868 114 835 150 868 b 304 764 265 868 304 813 b 197 651 304 688 246 651 b 90 772 142 651 90 694 m 318 111 b 443 236 318 181 374 236 b 568 111 513 236 568 181 b 443 -14 568 42 513 -14 b 318 111 374 -14 318 42 "},"Ľ":{"ha":917,"x_min":0,"x_max":0,"o":"m 589 1015 b 724 1139 589 1082 650 1139 b 863 953 799 1139 863 1075 b 586 694 863 814 753 694 l 586 700 b 847 1019 749 700 886 825 b 714 892 839 956 789 892 b 589 1015 635 892 589 949 m 25 0 l 25 6 l 150 6 l 150 1036 l 25 1036 l 25 1042 l 489 1042 l 489 1036 l 364 1036 l 364 6 l 507 6 b 821 313 711 6 800 136 l 826 313 l 826 0 "},"Ů":{"ha":1003,"x_min":0,"x_max":0,"o":"m 372 1264 b 511 1389 372 1335 426 1389 b 650 1264 596 1389 650 1335 b 511 1139 650 1193 596 1139 b 372 1264 426 1139 372 1193 m 456 1264 b 511 1144 456 1192 467 1144 b 567 1264 556 1144 567 1192 b 511 1383 567 1336 556 1383 b 456 1264 467 1383 456 1336 m 503 1042 l 503 1036 l 364 1036 l 364 333 b 578 -6 364 150 399 -6 b 842 319 740 -6 842 94 l 842 1036 l 711 1036 l 711 1042 l 983 1042 l 983 1036 l 847 1036 l 847 319 b 525 -21 847 90 751 -21 b 150 319 264 -21 150 79 l 150 1036 l 25 1036 l 25 1042 "},"Ļ":{"ha":854,"x_min":0,"x_max":0,"o":"m 25 0 l 25 6 l 150 6 l 150 1036 l 25 1036 l 25 1042 l 489 1042 l 489 1036 l 364 1036 l 364 6 l 507 6 b 821 313 711 6 800 136 l 826 313 l 826 0 m 297 -207 b 432 -83 297 -140 358 -83 b 571 -269 507 -83 571 -147 b 294 -528 571 -408 461 -528 l 294 -522 b 556 -203 457 -522 594 -397 b 422 -331 547 -267 497 -331 b 297 -207 343 -331 297 -274 "},"İ":{"ha":579,"x_min":0,"x_max":0,"o":"m 182 1269 b 289 1376 182 1329 229 1376 b 394 1269 347 1376 394 1329 b 289 1164 394 1211 347 1164 b 182 1269 229 1164 182 1211 m 178 6 l 178 1036 l 25 1036 l 25 1042 l 558 1042 l 558 1036 l 392 1036 l 392 6 l 558 6 l 558 0 l 25 0 l 25 6 "},"ˇ":{"ha":590,"x_min":0,"x_max":0,"o":"m 517 1086 l 521 1083 l 354 896 l 236 896 l 69 1083 l 72 1086 l 294 993 "},"Ż":{"ha":857,"x_min":0,"x_max":0,"o":"m 326 1244 b 433 1351 326 1304 374 1351 b 539 1244 492 1351 539 1304 b 433 1139 539 1186 492 1139 b 326 1244 374 1139 326 1186 m 794 1042 l 794 1036 l 261 6 l 517 6 b 803 285 707 6 775 108 l 808 285 l 808 0 l 17 0 l 17 6 l 553 1036 l 336 1036 b 50 785 146 1036 78 933 l 44 785 l 44 1042 "},"ŉ":{"ha":1042,"x_min":0,"x_max":0,"o":"m 14 971 b 149 1094 14 1038 75 1094 b 288 908 224 1094 288 1031 b 11 650 288 769 178 650 l 11 656 b 272 975 174 656 311 781 b 139 847 264 911 214 847 b 14 971 60 847 14 904 m 301 6 l 301 633 l 210 633 l 210 639 l 496 639 l 496 410 b 721 653 511 529 561 653 b 918 443 876 653 918 564 l 918 6 l 1010 6 l 1010 0 l 654 0 l 654 6 l 724 6 l 724 440 b 654 613 724 557 713 613 b 496 310 524 613 496 438 l 496 6 l 565 6 l 565 0 l 210 0 l 210 6 "},"š":{"ha":611,"x_min":0,"x_max":0,"o":"m 542 926 l 546 924 l 379 736 l 261 736 l 94 924 l 97 926 l 319 833 m 53 -14 l 53 201 l 58 201 b 321 -8 94 76 194 -8 b 475 100 410 -8 475 29 b 67 451 475 253 67 179 b 282 651 67 561 150 651 b 440 593 347 651 400 628 l 522 653 l 528 653 l 528 458 l 522 458 b 283 646 494 546 414 646 b 156 554 207 646 156 610 b 578 204 156 406 578 465 b 326 -14 578 60 454 -14 b 142 53 253 -14 190 11 l 58 -14 "},"Ġ":{"ha":1051,"x_min":0,"x_max":0,"o":"m 463 1269 b 569 1376 463 1329 510 1376 b 675 1269 628 1376 675 1329 b 569 1164 675 1211 628 1164 b 463 1269 510 1164 463 1211 m 1039 399 l 1039 393 l 969 393 l 969 215 b 553 -14 879 121 779 -14 b 58 521 243 -14 58 197 b 572 1056 58 844 290 1056 b 790 975 653 1056 729 1025 l 928 1042 l 933 1042 l 933 736 l 928 736 b 592 1044 900 885 758 1044 b 303 521 385 1044 303 774 b 553 -7 303 268 353 -7 b 739 174 669 -7 718 115 l 739 393 l 594 393 l 594 399 "},"Ă":{"ha":1086,"x_min":0,"x_max":0,"o":"m 392 1381 b 553 1292 392 1317 478 1292 b 714 1381 628 1292 714 1317 l 719 1381 b 553 1160 719 1247 671 1160 b 386 1381 435 1160 386 1247 l 392 1381 m 157 6 l 275 340 l 275 342 l 528 1063 l 600 1063 l 968 6 l 1067 6 l 1067 0 l 594 0 l 594 6 l 718 6 l 610 336 l 278 336 l 163 6 l 331 6 l 331 0 l 25 0 l 25 6 m 281 342 l 608 342 l 450 828 "},"”":{"ha":729,"x_min":0,"x_max":0,"o":"m 56 946 b 190 1069 56 1013 117 1069 b 329 883 265 1069 329 1006 b 53 625 329 744 219 625 l 53 631 b 314 950 215 631 353 756 b 181 822 306 886 256 822 b 56 946 101 822 56 879 m 403 946 b 538 1069 403 1013 464 1069 b 676 883 613 1069 676 1006 b 400 625 676 744 567 625 l 400 631 b 661 950 563 631 700 756 b 528 822 653 886 603 822 b 403 946 449 822 403 879 "},"˚":{"ha":444,"x_min":0,"x_max":0,"o":"m 83 944 b 222 1069 83 1015 138 1069 b 361 944 307 1069 361 1015 b 222 819 361 874 307 819 b 83 944 138 819 83 874 m 167 944 b 222 825 167 872 178 825 b 278 944 267 825 278 872 b 222 1064 278 1017 267 1064 b 167 944 178 1064 167 1017 "},"ﬀ":{"ha":972,"x_min":0,"x_max":0,"o":"m 142 6 l 142 633 l 17 633 l 17 639 l 142 639 l 142 642 b 500 986 142 838 292 986 b 649 933 560 986 613 965 b 913 1056 707 1008 800 1056 b 1104 897 1032 1056 1104 976 b 997 783 1104 826 1060 783 b 885 886 942 783 885 817 b 996 994 885 956 938 994 b 1089 931 1040 994 1078 964 b 919 1050 1078 986 1019 1050 b 764 750 808 1050 764 926 l 764 639 l 956 639 l 956 633 l 764 633 l 764 6 l 928 6 l 928 0 l 17 0 l 17 6 m 331 639 l 576 639 l 576 708 b 486 811 529 717 486 750 b 592 917 486 881 533 917 b 631 908 606 917 618 914 b 643 926 635 914 639 921 b 506 981 608 957 558 981 b 331 681 394 981 331 857 m 576 6 l 576 633 l 331 633 l 331 6 "},"Ŀ":{"ha":854,"x_min":0,"x_max":0,"o":"m 25 0 l 25 6 l 150 6 l 150 1036 l 25 1036 l 25 1042 l 489 1042 l 489 1036 l 364 1036 l 364 6 l 507 6 b 821 313 711 6 800 136 l 826 313 l 826 0 m 483 722 b 608 847 483 792 539 847 b 733 722 678 847 733 792 b 608 597 733 653 678 597 b 483 722 539 597 483 653 "},"Ņ":{"ha":1039,"x_min":0,"x_max":0,"o":"m 164 6 l 164 1036 l 25 1036 l 25 1042 l 419 1042 l 867 354 l 867 1036 l 708 1036 l 708 1042 l 1019 1042 l 1019 1036 l 872 1036 l 872 -14 l 864 -14 l 169 1033 l 169 6 l 331 6 l 331 0 l 25 0 l 25 6 m 406 -193 b 540 -69 406 -126 467 -69 b 679 -256 615 -69 679 -133 b 403 -514 679 -394 569 -514 l 403 -508 b 664 -189 565 -508 703 -383 b 531 -317 656 -253 606 -317 b 406 -193 451 -317 406 -260 "},"´":{"ha":569,"x_min":0,"x_max":0,"o":"m 83 1004 l 81 1010 l 389 1122 b 493 1049 443 1142 493 1096 b 403 972 493 1001 450 967 "},"Ř":{"ha":1031,"x_min":0,"x_max":0,"o":"m 718 1294 l 722 1292 l 556 1104 l 438 1104 l 271 1292 l 274 1294 l 496 1201 m 164 6 l 164 1036 l 25 1036 l 25 1042 l 511 1042 b 900 785 742 1042 900 965 b 589 535 900 624 786 550 b 939 4 1040 532 768 4 b 1014 22 968 4 994 14 l 1017 17 b 850 -11 994 4 933 -11 b 475 532 471 -11 817 532 l 378 532 l 378 6 l 517 6 l 517 0 l 25 0 l 25 6 m 378 1036 l 378 538 l 475 538 b 678 785 608 538 678 619 b 475 1036 678 950 608 1036 "},"ﬂ":{"ha":933,"x_min":0,"x_max":0,"o":"m 142 6 l 142 633 l 17 633 l 17 639 l 142 639 l 142 711 b 486 1056 142 907 285 1056 b 615 1014 539 1056 583 1040 l 808 1069 l 808 6 l 919 6 l 919 0 l 17 0 l 17 6 m 331 633 l 331 6 l 614 6 l 614 785 b 569 776 600 779 586 776 b 458 879 514 776 458 810 b 567 986 458 949 506 986 b 614 974 585 986 601 981 l 614 1006 b 492 1049 585 1031 543 1049 b 331 750 368 1049 331 926 l 331 639 l 521 639 l 521 633 "},"Ĺ":{"ha":854,"x_min":0,"x_max":0,"o":"m 289 1157 l 286 1163 l 594 1275 b 699 1201 649 1294 699 1249 b 608 1125 699 1154 656 1119 m 25 0 l 25 6 l 150 6 l 150 1036 l 25 1036 l 25 1042 l 489 1042 l 489 1036 l 364 1036 l 364 6 l 507 6 b 821 313 711 6 800 136 l 826 313 l 826 0 "},"Ũ":{"ha":1003,"x_min":0,"x_max":0,"o":"m 364 1249 b 275 1167 313 1249 275 1218 l 269 1167 b 407 1371 269 1285 318 1371 b 658 1261 518 1371 567 1261 b 747 1343 717 1261 747 1292 l 753 1343 b 629 1139 753 1211 732 1139 b 364 1249 522 1139 464 1249 m 503 1042 l 503 1036 l 364 1036 l 364 333 b 578 -6 364 150 399 -6 b 842 319 740 -6 842 94 l 842 1036 l 711 1036 l 711 1042 l 983 1042 l 983 1036 l 847 1036 l 847 319 b 525 -21 847 90 751 -21 b 150 319 264 -21 150 79 l 150 1036 l 25 1036 l 25 1042 "},"Ţ":{"ha":940,"x_min":0,"x_max":0,"o":"m 364 6 l 364 1036 l 275 1036 b 31 708 126 1036 51 885 l 25 708 l 25 1042 l 919 1042 l 919 708 l 914 708 b 669 1036 893 885 818 1036 l 581 1036 l 581 6 l 733 6 l 733 0 l 468 0 l 408 -79 b 639 -192 542 -83 639 -114 b 363 -319 639 -261 572 -319 l 363 -314 b 485 -219 444 -314 485 -272 b 357 -135 485 -146 426 -135 l 458 0 l 211 0 l 211 6 "},"Ź":{"ha":857,"x_min":0,"x_max":0,"o":"m 239 1157 l 236 1163 l 544 1275 b 649 1201 599 1294 649 1249 b 558 1125 649 1154 606 1119 m 794 1042 l 794 1036 l 261 6 l 517 6 b 803 285 707 6 775 108 l 808 285 l 808 0 l 17 0 l 17 6 l 553 1036 l 336 1036 b 50 785 146 1036 78 933 l 44 785 l 44 1042 "},"ċ":{"ha":710,"x_min":0,"x_max":0,"o":"m 299 867 b 406 974 299 926 346 974 b 511 867 464 974 511 926 b 406 761 511 808 464 761 b 299 867 346 761 299 808 m 625 528 b 419 644 603 592 514 644 b 272 319 289 644 272 450 b 419 0 272 161 303 0 b 651 199 536 0 615 82 l 658 199 b 388 -14 622 78 542 -14 b 43 319 185 -14 43 97 b 396 653 43 514 165 653 b 658 464 544 653 658 571 b 547 353 658 393 610 353 b 433 461 492 353 433 381 b 539 567 433 531 492 567 b 625 528 582 567 610 549 "},"ě":{"ha":722,"x_min":0,"x_max":0,"o":"m 608 926 l 613 924 l 446 736 l 328 736 l 161 924 l 164 926 l 386 833 m 686 199 b 383 -14 650 78 551 -14 b 43 319 188 -14 43 104 b 381 653 43 535 185 653 b 685 360 588 653 685 511 l 258 360 b 258 333 258 351 258 342 b 418 -3 258 154 288 -3 b 679 199 549 -3 644 85 l 686 199 m 381 647 b 258 365 292 647 263 513 l 478 365 b 381 647 478 486 469 647 "},"ż":{"ha":653,"x_min":0,"x_max":0,"o":"m 239 842 b 346 949 239 901 286 949 b 451 842 404 949 451 901 b 346 736 451 783 404 736 b 239 842 286 736 239 783 m 281 633 b 60 400 150 633 81 540 l 54 400 l 54 639 l 611 639 l 611 633 l 235 6 l 375 6 b 626 256 538 6 606 83 l 633 256 l 633 0 l 15 0 l 15 6 l 390 633 l 281 633 "},"ē":{"ha":722,"x_min":0,"x_max":0,"o":"m 581 753 l 581 747 l 189 747 l 189 753 m 686 199 b 383 -14 650 78 551 -14 b 43 319 188 -14 43 104 b 381 653 43 535 185 653 b 685 360 588 653 685 511 l 258 360 b 258 333 258 351 258 342 b 418 -3 258 154 288 -3 b 679 199 549 -3 644 85 l 686 199 m 381 647 b 258 365 292 647 263 513 l 478 365 b 381 647 478 486 469 647 "},"Ş":{"ha":829,"x_min":0,"x_max":0,"o":"m 58 -14 l 58 313 l 65 313 b 419 -14 118 149 217 -14 b 635 194 553 -14 635 72 b 72 778 635 458 72 375 b 381 1056 72 951 219 1056 b 590 975 465 1056 535 1028 l 714 1056 l 719 1056 l 719 743 l 713 743 b 389 1047 657 935 547 1047 b 219 881 276 1047 219 976 b 775 299 219 644 775 701 b 428 -21 775 104 624 -21 b 399 -19 418 -21 408 -21 l 319 -125 b 550 -237 453 -129 550 -160 b 274 -365 550 -307 483 -365 l 274 -360 b 396 -265 356 -360 396 -318 b 268 -181 396 -192 338 -181 l 389 -19 b 192 74 306 -11 242 24 l 64 -14 "},"ĳ":{"ha":829,"x_min":0,"x_max":0,"o":"m 86 938 b 203 1056 86 1004 136 1056 b 322 938 269 1056 322 1004 b 203 819 322 871 269 819 b 86 938 136 819 86 871 m 497 938 b 617 1056 497 1004 550 1056 b 733 938 683 1056 733 1004 b 617 819 733 871 683 819 b 497 938 550 819 497 871 m 119 6 l 119 633 l 29 633 l 29 639 l 314 639 l 314 6 l 406 6 l 406 0 l 29 0 l 29 6 m 725 -17 b 422 -361 725 -199 617 -361 b 211 -196 296 -361 211 -287 b 325 -82 211 -126 264 -82 b 436 -185 381 -82 436 -115 b 317 -290 436 -251 389 -290 b 225 -219 264 -290 231 -256 b 406 -353 228 -286 303 -353 b 526 29 551 -353 526 -147 l 531 633 l 411 633 l 411 639 l 725 639 "},"ĉ":{"ha":710,"x_min":0,"x_max":0,"o":"m 181 711 l 178 715 l 344 903 l 463 903 l 629 715 l 626 711 l 403 806 m 625 528 b 419 644 603 592 514 644 b 272 319 289 644 272 450 b 419 0 272 161 303 0 b 651 199 536 0 615 82 l 658 199 b 388 -14 622 78 542 -14 b 43 319 185 -14 43 97 b 396 653 43 514 165 653 b 658 464 544 653 658 571 b 547 353 658 393 610 353 b 433 461 492 353 433 381 b 539 567 433 531 492 567 b 625 528 582 567 610 549 "},"ŗ":{"ha":649,"x_min":0,"x_max":0,"o":"m 114 6 l 114 633 l 22 633 l 22 639 l 308 639 l 308 436 b 489 653 321 556 364 653 b 644 506 567 653 644 594 b 528 386 644 442 601 386 b 411 497 461 386 411 428 b 622 553 411 608 563 653 b 486 647 604 613 543 647 b 308 310 321 647 308 465 l 308 6 l 400 6 l 400 0 l 22 0 l 22 6 m 88 -207 b 222 -83 88 -140 149 -83 b 361 -269 297 -83 361 -147 b 85 -528 361 -408 251 -528 l 85 -522 b 346 -203 247 -522 385 -397 b 213 -331 338 -267 288 -331 b 88 -207 133 -331 88 -274 "},"ţ":{"ha":496,"x_min":0,"x_max":0,"o":"m 275 -222 b 147 -137 275 -149 217 -137 l 244 -8 b 110 161 132 1 110 71 l 110 633 l 8 633 l 8 639 l 110 639 l 110 778 b 304 819 172 778 256 792 l 304 639 l 453 639 l 453 633 l 304 633 l 304 117 b 357 22 304 47 319 22 b 489 143 401 22 458 68 l 494 142 b 271 -10 461 53 383 -10 b 253 -10 265 -10 258 -10 l 199 -82 b 429 -194 332 -86 429 -117 b 153 -322 429 -264 363 -322 l 153 -317 b 275 -222 235 -317 275 -275 "},"ȷ":{"ha":451,"x_min":0,"x_max":0,"o":"m 347 -17 b 44 -361 347 -199 239 -361 b -167 -196 -82 -361 -167 -287 b -53 -82 -167 -125 -114 -82 b 58 -185 3 -82 58 -115 b -61 -290 58 -251 11 -290 b -153 -219 -114 -290 -147 -256 b 28 -353 -150 -286 -75 -353 b 150 29 174 -353 150 -147 l 153 633 l 28 633 l 28 639 l 347 639 "},"ą":{"ha":800,"x_min":0,"x_max":0,"o":"m 454 351 l 454 424 b 322 642 454 531 426 642 b 154 585 246 642 179 610 b 322 504 247 621 322 569 b 206 404 322 442 261 404 b 99 501 143 404 99 444 b 360 650 99 590 219 650 b 649 424 589 650 649 550 l 649 64 b 700 13 649 33 667 13 b 796 89 722 13 768 32 l 801 88 b 621 -14 769 19 700 -12 b 579 -169 599 -42 579 -97 b 651 -292 579 -247 611 -292 b 735 -221 690 -292 713 -261 l 738 -224 b 565 -325 717 -262 685 -325 b 393 -206 474 -325 393 -289 b 579 -12 393 -112 488 -49 b 454 108 510 -4 454 28 l 454 182 b 238 -14 438 54 369 -14 b 50 157 128 -14 50 54 b 354 351 50 274 151 351 m 339 43 b 454 251 394 43 454 93 l 454 346 l 403 346 b 261 175 318 346 261 267 b 339 43 261 92 289 43 "}}}
